<?xml version="1.0" encoding="utf-8"?>
<!-- Generator: Adobe Illustrator 18.1.1, SVG Export Plug-In . SVG Version: 6.00 Build 0)  -->
<svg version="1.1" id="Layer_1" xmlns="http://www.w3.org/2000/svg" xmlns:xlink="http://www.w3.org/1999/xlink" x="0px" y="0px"
	 viewBox="0 0 612 792" style="enable-background:new 0 0 612 792;" xml:space="preserve">
<g>
	<g>
		<path d="M10.87,423.7c-1.97-2.04-1.63-4.93-2.21-7.56c-1-4.53-2.02-9.07-3.08-13.59c-0.37-1.6-0.91-3.16-1.33-4.75
			c-0.48-1.83-0.12-2.3,1.53-3.17c2.81-1.48,5.54-3.11,8.31-4.68c1.27-0.72,2.54-1.45,3.97-2.27c0.85,1.08,1.69,2.11,2.49,3.16
			c1.32,1.75,2.64,3.51,3.93,5.29c2.16,2.99,4.76,5.62,7.6,7.87c2.45,1.94,4.58,4.19,6.9,6.25c1.91,1.7,3.78,3.43,5.7,5.11
			c0.55,0.47,1.24,0.77,1.84,1.19c2.15,1.5,4.22,3.13,6.44,4.5c3.59,2.21,7.28,4.25,10.93,6.36c1.32,0.76,2.69,1.3,4.24,1.58
			c1.41,0.26,2.69,1.12,4.05,1.68c3.32,1.39,6.63,2.84,9.99,4.13c2.56,0.99,5.17,1.9,7.82,2.62c4.54,1.22,9.11,2.31,13.69,3.38
			c6.14,1.43,12.38,2.25,18.61,3.14c5.34,0.76,10.7,1.18,16.07,1.38c7.09,0.26,14.2,0.38,21.3,0.21c5.49-0.12,10.96-0.78,16.71-1.21
			c-0.24,0.59-0.33,0.98-0.54,1.28c-1.69,2.4-3.37,4.82-5.12,7.17c-3.06,4.12-6.56,7.87-10.09,11.58
			c-5.19,5.45-10.78,10.46-16.79,14.99c-3.06,2.31-6.12,4.64-9.33,6.74c-2.65,1.73-5.47,3.2-8.27,4.68
			c-3.13,1.65-6.28,3.27-9.49,4.75c-2.71,1.25-5.5,2.33-8.3,3.39c-2.45,0.92-4.91,1.89-7.45,2.48c-1.49,0.35-3.16,0.12-4.73-0.05
			c-1.51-0.16-3-0.62-4.51-0.84c-2-0.29-3.68-1.22-5.3-2.34c-1.18-0.81-1.64-1.91-1.62-3.29c0.03-2.45,0.07-4.91,0.05-7.36
			c-0.02-1.9-0.12-3.79-0.18-5.69c-0.03-1.13-0.4-1.92-1.6-2.37c-5.14-1.94-9.61-5.08-14.08-8.19c-0.65-0.45-1.26-0.96-1.95-1.33
			c-0.78-0.43-1.6-0.5-2.4,0.06c-1.55,1.08-3.12,2.11-4.66,3.21c-1.99,1.42-3.96,2.87-5.94,4.31c-1.15,0.84-1.44,0.8-2.48-0.23
			c-5.18-5.11-10.37-10.22-15.54-15.33c-1.35-1.33-2.68-2.68-4.02-4.01c-0.51-0.51-0.55-1.01-0.14-1.63
			c2.11-3.22,4.18-6.46,6.27-9.69c0.13-0.2,0.29-0.39,0.47-0.55c1.59-1.47,1.79-2.73,0.57-4.46c-1.37-1.95-2.85-3.83-4.17-5.8
			c-1.56-2.33-3-4.72-4.49-7.09c-0.65-1.04-1.26-2.09-1.91-3.12c-0.39-0.62-0.96-1.02-1.7-0.8c-0.84,0.25-1.5-0.08-2.26-0.28
			c-1.04-0.28-2.23-0.89-3.29,0.14c-0.13,0.12-0.42,0.14-0.63,0.12C17.52,424.44,14.31,424.08,10.87,423.7z"/>
		<path d="M62.26,411.81c-2.12-1.52-4.24-3.04-6.36-4.56c-1.34-0.96-2.69-1.92-4.01-2.91c-1.36-1.03-2.68-2.11-4.02-3.15
			c-0.53-0.41-1.09-0.78-1.64-1.16c-0.3-0.21-0.69-0.35-0.89-0.63c-1.96-2.75-4.79-4.63-7.02-7.11c-1.3-1.45-2.63-2.87-3.87-4.38
			c-2.36-2.89-4.63-5.84-6.99-8.73c-2.92-3.57-5.32-7.48-7.61-11.46c-2.08-3.6-4.13-7.23-6.01-10.93c-1.8-3.54-3.41-7.17-5.02-10.8
			c-1.12-2.52-2.05-5.12-3.15-7.64c-1.11-2.55-1.01-5.11-0.41-7.74c0.33-1.42,0.42-2.9,0.83-4.29c0.63-2.12,1.42-4.24,3.17-5.71
			c0.69-0.58,1.76-0.95,2.68-0.98c4.16-0.14,8.32-0.13,12.49-0.14c1.85,0,2.15-0.21,2.56-2.04c0.06-0.29,0.18-0.58,0.34-0.83
			c1.6-2.59,3.15-5.22,4.85-7.76c1.38-2.08,2.94-4.04,4.41-6.05c1-1.36,1.06-2.07,0.09-3.48c-2.29-3.32-4.62-6.62-6.95-9.91
			c-1.11-1.57-1.15-1.67,0.26-3.06c2.35-2.33,4.74-4.61,7.09-6.95c2.6-2.59,5.14-5.24,7.75-7.83c1.6-1.59,3.26-3.11,4.94-4.72
			c2.83,1.78,5.57,3.5,8.31,5.23c1.39,0.88,2.78,1.78,4.17,2.66c0.85,0.54,1.61,0.28,2.38-0.25c2.07-1.41,4.12-2.88,6.28-4.16
			c3.47-2.05,6.99-4.05,10.58-5.88c1.55-0.79,2.09-1.71,2.04-3.44c-0.12-4.29-0.03-8.58,0-12.87c0.01-1.74,0.24-1.87,1.94-2.28
			c2.85-0.69,5.68-1.5,8.52-2.23c5.63-1.45,11.26-2.89,17.07-4.38c0.45,0.65,0.98,1.31,1.4,2.03c2.01,3.5,4,7.02,5.98,10.54
			c0.76,1.35,0.7,1.56-0.57,2.33c-4.63,2.81-8.71,6.33-12.65,10.01c-6.7,6.26-12.49,13.3-17.56,20.92
			c-4.04,6.07-7.56,12.45-10.48,19.14c-1.84,4.2-3.52,8.48-5.03,12.81c-1.19,3.4-2,6.93-3.03,10.39c-0.4,1.34-1.09,2.6-1.38,3.95
			c-1.26,5.86-2.54,11.72-3.58,17.63c-0.53,3-0.53,6.09-0.85,9.13c-0.25,2.37-0.66,4.73-0.92,7.09c-0.33,2.91-0.75,5.83-0.85,8.75
			c-0.18,5.14-0.24,10.3-0.16,15.44c0.06,3.73,0.39,7.45,0.65,11.17c0.22,3.17,0.53,6.33,0.77,9.5c0.04,0.46-0.06,0.94-0.09,1.41
			C62.54,411.6,62.4,411.71,62.26,411.81z"/>
		<path d="M77.66,340.34c1.22-1.86,2.2-3.46,3.29-4.98c0.74-1.03,1.53-2.06,2.46-2.91c2.29-2.1,3.82-4.77,5.56-7.28
			c2.74-3.94,6.48-6.07,11.23-6.33c2.63-0.14,5.27-0.02,7.9-0.02c13.86,0.04,27.71,0.03,41.57,0.16c4.4,0.04,8.84,0.17,13.19,0.76
			c4.59,0.62,9.09,1.78,13.35,3.79c3.29,1.55,6.49,3.2,9.13,5.73c1.58,1.51,3.1,3.15,4.34,4.94c2.65,3.84,3.67,8.26,3.68,12.88
			c0,2.81-0.19,5.64-0.56,8.42c-0.52,3.93-0.54,7.85,0.47,11.66c0.6,2.26,1.85,4.36,2.8,6.53c3.37,3.04,6.7,6.19,11.47,6.86
			c3.09,0.44,6.18,0.91,9.29,1.08c5.26,0.29,10.53,0.35,15.8,0.49c4.72,0.12,9.44,0.22,14.16,0.31c2.07,0.04,2.19-0.08,2.21-2.16
			c0.03-2.57,0.03-5.15,0.01-7.73c-0.01-0.78-0.14-1.55-0.24-2.47c-0.8-0.05-1.46-0.12-2.12-0.12c-10.85-0.06-21.7-0.11-32.56-0.15
			c-2.14-0.01-4.29,0.06-6.44,0.04c-0.71-0.01-1.42-0.17-2.39-0.29c0.44-0.54,0.68-0.86,0.95-1.16c4.21-4.9,8.47-9.75,12.59-14.71
			c1.54-1.85,3.22-2.61,5.67-2.59c15.76,0.1,31.52,0.04,47.28,0.04c1.09,0,2.18,0,3.2,0c0.42,1.51,0.52,49.82,0.14,52.37
			c-0.47,0.05-0.99,0.16-1.51,0.16c-19.07-0.02-38.14-0.05-57.21-0.08c-6.22-0.01-12.3-1.01-18.23-2.83c-3.87-1.19-7.62-2.8-11-4.99
			c-3.26-2.11-6.34-4.5-9.16-7.25c-2.29-2.23-4.17-4.71-5.9-7.35c-2.49-3.79-3.99-7.98-4.87-12.41c-0.83-4.18-1.16-8.41-0.48-12.61
			c0.48-2.97,0.34-5.83-0.26-8.72c-0.64-3.03-2.6-4.86-5.32-6.11c-2.25-1.04-4.65-1.09-7.01-1.1c-12.26-0.08-24.53-0.06-36.79-0.02
			c-7.28,0.02-14.55,0.12-21.83,0.22c-5.02,0.07-10.04,0.2-15.06,0.27C79.62,340.67,78.78,340.48,77.66,340.34z"/>
		<path d="M93.01,298.03c1.56-2.17,3.07-4.39,4.7-6.52c4.56-5.94,9.48-11.55,14.89-16.72c6.61-6.3,13.64-12.08,21.34-17.05
			c5.31-3.43,10.79-6.51,16.48-9.23c5.81-2.77,11.83-5.02,18.02-6.78c0.52-0.15,1.08-0.25,1.62-0.24c3.52,0.09,6.95,0.78,10.24,1.93
			c1.31,0.46,2.5,1.56,3.45,2.63c0.51,0.58,0.51,1.71,0.52,2.6c0.06,4.29,0.08,8.58,0.06,12.87c0,1.19,0.47,1.85,1.59,2.37
			c5.46,2.52,10.56,5.7,15.48,9.15c1.62,1.14,2.16,1.24,3.79,0.1c2.81-1.96,5.56-3.99,8.34-6c0.94-0.68,1.87-1.38,2.86-2.11
			c1.43,0.62,2.26,1.88,3.28,2.89c3.71,3.66,7.36,7.37,11.03,11.05c2.03,2.03,4.13,4,6.09,6.11c0.78,0.85,1.6,1.25,2.7,1.28
			c4.16,0.14,8.33,0.26,12.5,0.43c6.73,0.28,13.46,0.62,20.2,0.9c4.96,0.21,9.92,0.38,14.89,0.55c7.29,0.26,14.58,0.5,21.87,0.75
			c5.94,0.21,11.89,0.42,17.82,0.65c9.49,0.37,18.98,0.77,28.47,1.13c7.53,0.29,15.06,0.55,22.59,0.81
			c6.61,0.23,13.23,0.41,19.84,0.68c7.04,0.29,14.08,0.7,21.12,1c5.2,0.22,10.41,0.32,15.62,0.52c9.06,0.34,18.13,0.69,27.19,1.06
			c10.66,0.43,21.31,0.93,31.97,1.32c6.86,0.26,13.73,0.33,20.59,0.58c7.41,0.27,14.81,0.67,22.22,0.98
			c6.74,0.28,13.48,0.49,20.21,0.73c0.35,0.01,0.71,0.08,1.06,0.36c-3,0-6,0-8.99,0c-27.36,0-54.71,0.01-82.06,0
			c-34.23,0-68.45-0.02-102.67-0.02c-43.18,0-86.36-0.03-129.53,0.05c-3.33,0.01-6.39-0.66-9.47-1.74c-4.33-1.52-8.67-3.04-13.1-4.2
			c-5.85-1.52-11.78-2.78-17.79-3.55c-7.36-0.94-14.72-1.74-22.15-1.7c-6.19,0.03-12.39-0.03-18.57,0.21
			c-7.53,0.29-15.02,1.16-22.47,2.33c-6.52,1.03-13.03,2.17-19.49,3.5c-4.61,0.95-9.14,2.27-13.7,3.43
			c-1.46,0.37-2.92,0.77-4.38,1.16C93.18,298.22,93.09,298.12,93.01,298.03z"/>
		<path d="M103,403.28c-0.67,0.06-1.27,0.17-1.85,0.17c-7.24,0.01-14.47,0.02-21.71,0.01c-1.79,0-1.97-0.19-1.98-2.03
			c-0.01-8.71,0-17.41-0.02-26.12c-0.01-3.55-0.1-7.11-0.13-10.66c-0.01-0.86,0.11-1.71,0.14-2.57c0.03-0.9,0.45-1.34,1.37-1.33
			c3.73,0.01,7.47-0.01,11.21-0.01c4.11,0,8.22,0,12.33,0.03c9.13,0.07,18.26,0.17,27.39,0.23c6.93,0.05,13.86,0.08,20.78,0.12
			c1.33,0.01,2.67,0,4,0.01c0.71,0,1.16,0.31,1.22,1.07c0.07,1.1,0.12,2.2,0.22,3.29c0.4,4.35,1.48,8.54,2.9,12.67
			c1.97,5.75,4.96,10.92,8.91,15.48c1.9,2.19,4.19,4.05,6.33,6.03c1.39,1.29,2.83,2.53,4.54,4.05c-1.22-0.07-2.1-0.17-2.97-0.15
			c-5.51,0.06-11.02,0.11-16.53,0.24c-1.95,0.05-3.89,0.47-5.83,0.45c-1.87-0.02-3.85-0.11-5.58-0.73c-1.41-0.5-2.57-1.79-3.75-2.83
			c-2.35-2.04-3.77-4.76-5.26-7.42c-0.92-1.65-1.91-3.28-2.85-4.92c-0.31-0.53-0.64-1.05-0.87-1.62c-1.16-2.94-3.43-4.62-6.31-5.59
			c-2.75-0.93-5.58-0.57-8.38-0.45c-1.47,0.06-2.92,0.25-4.39,0.29c-3.61,0.11-7.22,0.15-10.83,0.24c-1.58,0.04-1.79,0.29-1.8,2.06
			c-0.01,5.27,0.02,10.55-0.01,15.82C103.26,400.44,103.1,401.78,103,403.28z"/>
		<path d="M192.7,319.1c28.61-0.15,56.8-0.29,85.28-0.44c-0.24,0.63-0.32,1.08-0.55,1.44c-3.64,5.65-7.3,11.29-10.96,16.93
			c-0.63,0.97-1.43,1.86-1.89,2.9c-0.5,1.15-1.32,1.25-2.35,1.25c-10.55,0.02-21.1,0.03-31.64,0.1c-9.99,0.06-19.98,0.18-29.98,0.29
			c-1.71,0.02-1.82,0.01-2.28-1.67C196.45,333.08,194.62,326.23,192.7,319.1z"/>
		<path d="M378.75,387.77c-2.58,0-5.08,0-7.72,0c-0.09-0.36-0.28-0.75-0.29-1.15c-0.02-9.74-0.02-19.48-0.02-29.22
			c0-0.37-0.01-0.74,0.05-1.1c0.17-1.12,0.53-1.5,1.68-1.53c2.57-0.06,5.15-0.04,7.72-0.06c4.96-0.05,9.92-0.21,14.88-0.1
			c2.53,0.05,5.16-0.03,7.51,1.27c4.48,2.48,6.21,6.97,4.59,11.86c-0.27,0.82-1.01,1.5-1.59,2.2c-0.73,0.89-0.85,1.77,0.07,2.38
			c1.59,1.06,1.74,2.72,2.13,4.3c0.09,0.35,0.05,0.73,0.05,1.1c0,3.3,0,6.59,0,10.01c-2.72,0-5.44,0-8.39,0
			c-0.02-1.92-0.05-3.79-0.06-5.67c-0.01-1.16,0.05-2.33-0.03-3.49c-0.12-1.65-0.85-2.42-2.46-2.72c-0.48-0.09-0.98-0.1-1.46-0.1
			c-4.78-0.01-9.56-0.01-14.34,0c-1.92,0-2.13,0.2-2.15,2.08c-0.02,2.88,0,5.76-0.01,8.64C378.9,386.88,378.8,387.29,378.75,387.77z
			 M379.52,368.14c0.86,0.09,1.57,0.23,2.28,0.23c4.41,0.01,8.82-0.01,13.23-0.02c0.37,0,0.74,0,1.1-0.08
			c1.3-0.27,2.32-1.47,2.34-2.72s-0.99-2.42-2.35-2.67c-0.47-0.09-0.98-0.08-1.46-0.08c-3.55,0-7.11,0-10.66,0
			c-1.04,0-2.08,0-3.12,0.03c-0.76,0.02-1.33,0.31-1.35,1.16C379.5,365.31,379.52,366.64,379.52,368.14z"/>
		<path d="M493.44,387.89c-1.22,0-2.46-0.11-3.67,0.02c-2.86,0.3-5.57-0.47-8.01-1.63c-3.77-1.8-6.63-4.65-8.19-8.74
			c-1.03-2.71-1.63-5.43-1.16-8.25c0.6-3.59,1.9-6.86,4.6-9.55c2.53-2.52,5.46-4.07,8.88-4.81c0.65-0.14,1.33-0.21,2-0.21
			c3.49-0.03,6.99-0.1,10.48-0.01c5.02,0.12,9.19,2,12.52,5.91c2.2,2.58,3.52,5.48,3.88,8.75c0.61,5.5-1.15,10.25-5.21,14.08
			c-3.23,3.05-7.15,4.36-11.52,4.45C496.5,387.92,494.97,387.89,493.44,387.89z M493.35,363.43c0,0.09-0.01,0.18-0.02,0.27
			c-1.65,0-3.3-0.02-4.96,0c-3.64,0.06-6.15,3.08-6.88,5.68c-1.45,5.14,2.89,9.45,6.78,9.54c3,0.07,5.99,0.18,8.99,0.17
			c1.71-0.01,3.41-0.24,4.9-1.25c2.61-1.77,4.15-4.28,3.61-7.83c-0.43-2.77-2.69-5.42-5.51-5.94
			C498,363.64,495.66,363.62,493.35,363.43z"/>
		<path d="M607.94,387.72c-3.23,0-6.26,0-9.33,0c-0.61-1.33-1.32-2.62-1.81-3.99c-0.41-1.16-1.15-1.4-2.25-1.39
			c-4.91,0.03-9.81,0.02-14.72,0.01c-0.98,0-1.96,0.01-2.94-0.03c-1.02-0.04-1.56,0.46-1.88,1.39c-0.45,1.32-0.98,2.62-1.51,4.01
			c-3.23,0-6.45,0-9.9,0c1.21-2.61,2.37-5.06,3.49-7.54c1.74-3.84,3.41-7.71,5.17-11.54c1.63-3.55,3.22-7.13,5.06-10.58
			c1.35-2.52,3.69-3.83,6.56-4.12c3.75-0.38,7.25,0.03,9.79,3.26c0.52,0.67,1,1.4,1.36,2.16c1.64,3.49,3.21,7.01,4.82,10.51
			c2.32,5.06,4.66,10.11,6.97,15.17C607.23,385.87,607.54,386.72,607.94,387.72z M591.66,374.57c-0.06-0.32-0.08-0.69-0.2-1.01
			c-0.85-2.16-1.69-4.33-2.61-6.47c-0.53-1.24-1.13-2.45-1.82-3.6c-0.72-1.21-1.65-1.15-2.37,0.06c-0.12,0.21-0.2,0.45-0.3,0.67
			c-1.22,2.74-2.48,5.46-3.66,8.22c-0.3,0.69-0.38,1.47-0.57,2.2C582.15,375.25,590.09,375.18,591.66,374.57z"/>
		<path d="M324.3,387.57c-2.95,0-5.63,0-8.31,0c-0.68,0-0.92-0.48-1.14-1.02c-0.41-0.96-0.88-1.89-1.27-2.85
			c-0.39-0.97-1.03-1.41-2.11-1.4c-6.01,0.02-12.01,0-18.02-0.03c-1,0-1.62,0.45-1.96,1.35c-0.37,0.97-0.78,1.93-1.1,2.92
			c-0.24,0.73-0.6,1.11-1.43,1.1c-2.69-0.04-5.37-0.02-8.35-0.02c0.91-2.15,1.7-4.11,2.56-6.04c1.85-4.13,3.74-8.24,5.63-12.36
			c1.55-3.39,3.06-6.8,4.71-10.14c1.62-3.29,4.3-4.98,8.04-5.14c3.29-0.14,6.22,0.44,8.44,3.07c0.55,0.65,1.11,1.33,1.46,2.08
			c2.53,5.5,5,11.03,7.5,16.55c1.47,3.23,2.97,6.43,4.44,9.65C323.71,385.96,323.95,386.65,324.3,387.57z M302.54,375.34
			c0,0,0-0.01,0-0.01c1.53,0,3.06,0,4.59,0c1.67,0.01,1.95-0.4,1.29-1.98c-0.68-1.64-1.39-3.26-2.1-4.88
			c-0.73-1.68-1.42-3.38-2.25-5.01c-0.27-0.53-0.9-1.09-1.45-1.21c-0.8-0.17-1.31,0.57-1.61,1.25c-1.47,3.36-2.94,6.72-4.34,10.1
			c-0.56,1.34-0.22,1.73,1.3,1.73C299.49,375.34,301.02,375.34,302.54,375.34z"/>
		<path d="M354.35,370.18c2.76,0,5.3,0,7.95,0c0.08,0.58,0.2,1.05,0.2,1.51c-0.02,4.53-0.03,9.06-0.11,13.6
			c-0.02,0.82-0.32,1.64-0.5,2.56c-0.8,0-1.4,0-2,0c-5.03,0-10.05-0.02-15.08,0.01c-3.31,0.02-6.41-0.72-9.38-2.17
			c-2.2-1.08-3.92-2.68-5.39-4.59c-3.75-4.87-3.95-10.29-2.18-15.87c0.7-2.2,2.05-4.17,3.81-5.76c3.18-2.89,6.84-4.71,11.23-4.73
			c6-0.03,12.01-0.03,18.02-0.03c0.36,0,0.72,0.06,1.33,0.11c0,2.51,0,4.98,0,7.73c-0.49,0.06-1.18,0.2-1.87,0.21
			c-5.7,0.05-11.4,0.03-17.1,0.11c-6.07,0.08-9.01,5.23-8.24,9.87c0.63,3.78,3.01,6.03,6.84,7.06c0.47,0.13,0.97,0.2,1.45,0.2
			c3,0.05,6,0.1,9.01,0.07c1.52-0.02,1.78-0.34,1.82-1.88c0.05-2.08,0.06-4.16,0.1-6.25C354.24,371.41,354.3,370.87,354.35,370.18z"
			/>
		<path d="M466.64,354.75c0.34,2.57,0.25,5.22,0.04,8.06c-1.19,0-2.22,0-3.24,0c-4.85,0.01-9.69,0.05-14.54,0.01
			c-3.75-0.03-6.41,1.67-8.24,4.86c-1.24,2.16-0.67,6.62,1.05,8.7c1.93,2.31,4.32,3.5,7.35,3.49c5.21-0.03,10.42-0.01,15.64,0
			c0.6,0,1.21,0,2.04,0c0.21,2.7,0.02,5.28,0.09,8.03c-1.35,0-2.43,0-3.53,0c-4.97,0-9.94,0.03-14.9-0.03
			c-4.53-0.06-8.69-1.6-11.81-4.74c-4.47-4.5-6.28-11.02-3.89-17.47c1.71-4.61,4.85-7.75,9.21-9.7c2-0.89,4.2-1.29,6.45-1.26
			c3.92,0.05,7.83,0.04,11.75,0.05C462.18,354.75,464.25,354.75,466.64,354.75z"/>
		<path d="M557.4,380c0,2.57,0,5.05,0,7.76c-0.57,0.05-1.21,0.14-1.84,0.14c-7.78,0.01-15.56,0-23.35,0c-1.97,0-3.88-0.28-5.66-1.22
			c-2.16-1.14-3.4-2.96-3.86-5.29c-0.26-1.31-0.39-2.66-0.4-4c-0.03-7.17,0.01-14.34,0.03-21.5c0-0.29,0.06-0.58,0.12-1.07
			c0.96-0.04,1.85-0.1,2.74-0.12c1.29-0.03,2.57,0,3.86-0.04c1.38-0.04,1.59,0.08,1.65,1.48c0.06,1.59,0.01,3.18,0.02,4.78
			c0.01,4.9,0.01,9.8,0.04,14.7c0,0.79,0.08,1.59,0.23,2.37c0.22,1.17,0.94,1.82,2.14,1.87c1.59,0.07,3.17,0.03,4.76,0.04
			c3.98,0.03,7.96,0.07,11.94,0.09C552.26,380.01,554.7,380,557.4,380z"/>
		<path d="M415.68,354.8c2.75,0,5.25,0,7.92,0c0.09,0.68,0.24,1.32,0.24,1.97c-0.01,7.11-0.05,14.22-0.05,21.33
			c0,2.88,0.08,5.75,0.11,8.63c0,0.29-0.03,0.58-0.05,1c-2.74,0-5.4,0-8.17,0C415.68,376.77,415.68,365.89,415.68,354.8z"/>
		<path d="M315.77,346.54c-0.75,0-1.27,0-2,0c0.03-2.9-0.26-5.7,0.26-8.49c0.21-1.1,1.02-1.68,2.03-1.87
			c0.93-0.17,1.71,0.28,2.15,1.09c0.83,1.56,1.58,3.17,2.36,4.76c0.37,0.76,0.64,1.6,1.87,1.88c0.6-1.23,1.2-2.48,1.8-3.72
			c0.42-0.88,0.79-1.79,1.27-2.64c0.62-1.09,1.64-1.49,2.81-1.22c1.01,0.23,1.74,1.06,1.77,2.28c0.06,2.56,0.02,5.13,0.02,7.65
			c-1.77,0.49-2.1,0.25-2.05-1.36c0.05-1.41,0.1-2.81,0.14-4.21c0.01-0.31,0.06-0.66-0.06-0.9c-0.17-0.34-0.46-0.8-0.75-0.84
			c-0.28-0.05-0.79,0.29-0.94,0.59c-0.77,1.53-1.45,3.09-2.17,4.64c-0.26,0.55-0.47,1.14-0.8,1.65c-0.76,1.18-2.28,1.21-2.97-0.01
			c-0.95-1.7-1.72-3.51-2.63-5.24c-0.37-0.69-0.41-1.99-1.55-1.7c-0.98,0.25-0.52,1.37-0.54,2.11
			C315.73,342.83,315.77,344.65,315.77,346.54z"/>
		<path d="M389.63,347.65c-1.56,0.25-2.6,0.09-3.55-0.84c-0.4-0.4-1.2-0.48-1.83-0.54c-1.15-0.11-2.32-0.01-3.46-0.15
			c-2.41-0.29-3.76-2.54-3.9-4.65c-0.15-2.28,1.35-4.36,3.65-4.83c2.26-0.46,4.61-0.79,6.8,0.32c2.65,1.33,3.7,4.67,1.95,6.98
			C388.21,345.38,388.11,346.34,389.63,347.65z M383.54,343.84c0.68-0.09,1.54-0.12,2.35-0.34c1.01-0.26,1.54-1.11,1.56-2.2
			c0.02-1.07-0.37-1.68-1.41-2.09c-1.59-0.61-3.23-0.49-4.85-0.14c-1.07,0.23-1.79,1.26-1.79,2.26c0,0.95,0.77,2.02,1.8,2.27
			C381.9,343.78,382.64,343.76,383.54,343.84z"/>
		<path d="M519.49,342.63c-0.13,1.36-0.24,2.6-0.36,3.82c-1.82,0.19-1.97,0.08-1.99-1.45c-0.02-2.26-0.04-4.53-0.05-6.8
			c0-1.65,0.21-1.87,1.92-1.88c2.08-0.02,4.17,0,6.25,0.03c2.71,0.04,3.75,1.41,3.19,4.02c-0.15,0.68-0.03,1.43,0.02,2.14
			c0.07,1.03,0.23,2.05,0.29,3.08c0.04,0.64-0.29,1.03-0.98,1.06c-0.7,0.03-1-0.36-1.07-0.99c-0.03-0.24-0.01-0.49-0.02-0.73
			c-0.11-1.99-0.34-2.24-2.26-2.29C522.86,342.6,521.27,342.63,519.49,342.63z M522.78,340.42c0-0.01,0-0.01,0-0.02
			c0.73,0,1.47,0.08,2.18-0.03c0.34-0.05,0.61-0.46,0.92-0.71c-0.3-0.32-0.57-0.89-0.89-0.92c-1.44-0.11-2.9-0.11-4.35-0.03
			c-0.29,0.02-0.55,0.53-0.83,0.81c0.32,0.3,0.61,0.77,0.98,0.86C521.42,340.52,522.11,340.42,522.78,340.42z"/>
		<path d="M565.73,346.58c1.55-3.27,2.87-6.33,4.44-9.27c1.03-1.92,3.65-1.85,4.82,0.03c0.77,1.24,1.37,2.59,1.97,3.92
			c0.75,1.64,1.44,3.32,2.19,5.07c-1.05,0.46-1.9,0.57-2.46-0.44c-0.49-0.88-1.21-1.1-2.14-1.07c-1.34,0.03-2.69,0.02-4.03-0.02
			c-0.72-0.02-1.38,0.08-1.75,0.75C568.15,346.66,567.18,346.72,565.73,346.58z M574.45,342.71c-0.5-1.63-0.7-2.99-2.01-4.01
			c-0.89,1.3-1.42,2.52-1.73,4.01C571.96,342.71,573.05,342.71,574.45,342.71z"/>
		<path d="M499.65,346.5c-1.05,0.31-1.94,0.28-2.52-0.8c-0.41-0.76-1.09-0.89-1.87-0.88c-1.41,0.02-2.82,0-4.22-0.03
			c-0.79-0.02-1.41,0.18-1.85,0.92c-0.6,1-1.52,1.02-2.69,0.7c1.29-2.87,2.52-5.64,3.78-8.4c0.58-1.27,1.57-2.02,3.02-2
			c1.4,0.02,2.23,0.84,2.77,2.05c1.18,2.62,2.36,5.23,3.53,7.85C499.68,346.07,499.64,346.27,499.65,346.5z M493.09,338.67
			c-0.95,1.32-1.66,2.44-1.48,3.98c1.19,0.28,2.29,0.54,3.51-0.31C494.48,341.19,494.39,339.82,493.09,338.67z"/>
		<path d="M467.12,343.73c0.89-2.29-0.03-4.78,0.56-7.18c0.31-0.07,0.6-0.17,0.89-0.18c0.29-0.02,0.58,0.05,1.04,0.09
			c0,2.98,0,5.91,0,8.83c0,0.75-0.52,1.08-1.12,1.29c-0.88,0.31-1.7,0.13-2.35-0.57c-0.74-0.8-1.46-1.62-2.17-2.44
			c-1.16-1.33-2.29-2.71-3.49-4c-0.28-0.3-0.9-0.57-1.21-0.46c-0.33,0.12-0.64,0.72-0.67,1.13c-0.08,1.4-0.04,2.81-0.04,4.22
			c0,0.37,0,0.73-0.01,1.1c-0.01,0.63-0.24,1.08-0.97,1.04c-0.72-0.03-0.9-0.51-0.92-1.13c0-0.12,0-0.24,0-0.37
			c0-2.14,0-4.28,0-6.42c0-1.03,0.21-1.95,1.33-2.37c1.14-0.42,2.06,0.02,2.78,0.84c1.49,1.7,2.91,3.46,4.36,5.19
			c0.46,0.54,0.96,1.04,1.44,1.56C466.76,343.84,466.94,343.79,467.12,343.73z"/>
		<path d="M360.78,346.43c-1.25,0.42-2.05,0.25-2.54-0.77c-0.34-0.71-0.95-0.88-1.67-0.87c-1.22,0.02-2.45,0.02-3.67,0
			c-1.19-0.03-2.26-0.05-2.94,1.28c-0.41,0.8-1.33,0.69-2.3,0.44c0.16-0.42,0.28-0.8,0.43-1.16c0.97-2.24,1.98-4.47,2.92-6.72
			c0.47-1.12,1.16-2.06,2.28-2.47c1.54-0.57,2.93,0.12,3.73,1.8c1,2.1,1.9,4.24,2.84,6.36
			C360.16,344.96,360.44,345.62,360.78,346.43z M356.43,343.02c-0.25-1.67-0.84-2.91-1.53-4.08c-0.35-0.6-1.08-0.49-1.45,0.21
			c-0.46,0.85-0.82,1.76-1.14,2.67c-0.21,0.59-0.02,1.15,0.7,1.18C354.06,343.06,355.13,343.02,356.43,343.02z"/>
		<path d="M407.23,336.4c0.87,0,1.35,0,2,0c0.06,0.69,0.17,1.34,0.18,1.99c0.03,1.53-0.03,3.07,0.04,4.6
			c0.06,1.29,0.57,1.73,1.87,1.75c1.22,0.02,2.44,0,3.66-0.01c1.65-0.02,2.06-0.4,2.11-2.07c0.04-1.22-0.03-2.45-0.02-3.68
			c0.01-0.79,0.09-1.58,0.14-2.45c0.36-0.07,0.64-0.16,0.92-0.17c0.29-0.01,0.59,0.06,0.98,0.11c0.08,0.44,0.22,0.85,0.22,1.26
			c0.02,1.9,0.03,3.8,0,5.7c-0.03,1.88-0.61,2.73-2.39,2.88c-2.37,0.2-4.77,0.25-7.15,0.12c-1.81-0.1-2.55-1.09-2.57-2.94
			C407.21,341.18,407.23,338.86,407.23,336.4z"/>
		<path d="M436.96,346.64c0-3.53,0-6.79,0-10.11c0.41-0.08,0.7-0.16,0.98-0.17c0.29,0,0.58,0.08,1,0.14c0,3.31,0,6.56,0,9.99
			C438.31,346.54,437.74,346.58,436.96,346.64z"/>
		<path d="M548.46,346.58c-0.89,0-1.42,0-2.15,0c-0.28-3.38-0.17-6.68-0.05-10.11c0.72,0,1.3,0,2.04,0
			C548.72,339.8,548.36,343.11,548.46,346.58z"/>
	</g>
</g>
</svg>
