<?xml version="1.0" encoding="utf-8"?>
<!-- Generator: Adobe Illustrator 18.1.1, SVG Export Plug-In . SVG Version: 6.00 Build 0)  -->
<svg version="1.1" id="Layer_1" xmlns="http://www.w3.org/2000/svg" xmlns:xlink="http://www.w3.org/1999/xlink" x="0px" y="0px"
	 viewBox="-508 0 1624 722" style="enable-background:new -508 0 1624 722;" xml:space="preserve">
<g>
	<g>
		<path d="M-480.64,494.64c-5.24-5.42-4.33-13.09-5.87-20.06c-2.65-12.03-5.35-24.06-8.16-36.06c-0.99-4.25-2.42-8.39-3.53-12.61
			c-1.27-4.86-0.31-6.11,4.05-8.4c7.46-3.93,14.71-8.26,22.05-12.42c3.37-1.91,6.73-3.84,10.54-6.02c2.26,2.86,4.49,5.59,6.61,8.39
			c3.51,4.65,7.01,9.31,10.42,14.04c5.72,7.94,12.62,14.91,20.17,20.89c6.51,5.16,12.15,11.12,18.3,16.59
			c5.06,4.5,10.02,9.11,15.12,13.55c1.45,1.26,3.29,2.04,4.88,3.15c5.7,3.98,11.19,8.31,17.1,11.95c9.52,5.86,19.32,11.29,29,16.89
			c3.51,2.03,7.14,3.44,11.25,4.2c3.73,0.69,7.15,2.96,10.74,4.46c8.82,3.7,17.59,7.54,26.51,10.97c6.8,2.62,13.71,5.05,20.74,6.95
			c12.04,3.25,24.18,6.14,36.33,8.97c16.28,3.8,32.84,5.98,49.38,8.33c14.17,2.01,28.39,3.13,42.64,3.65
			c18.82,0.7,37.69,1,56.52,0.57c14.56-0.33,29.09-2.06,44.34-3.22c-0.65,1.57-0.88,2.6-1.44,3.39
			c-4.48,6.37-8.93,12.78-13.58,19.03c-8.13,10.93-17.41,20.89-26.78,30.74c-13.76,14.46-28.6,27.76-44.55,39.78
			c-8.13,6.12-16.25,12.31-24.75,17.88c-7.02,4.6-14.51,8.49-21.95,12.42c-8.3,4.39-16.66,8.68-25.18,12.61
			c-7.2,3.32-14.6,6.19-22.02,8.99c-6.5,2.45-13.04,5.01-19.78,6.58c-3.96,0.93-8.38,0.31-12.54-0.13
			c-4.02-0.42-7.95-1.65-11.96-2.22c-5.31-0.76-9.76-3.23-14.07-6.2c-3.12-2.15-4.36-5.06-4.3-8.73c0.09-6.51,0.18-13.02,0.12-19.52
			c-0.05-5.04-0.33-10.07-0.49-15.1c-0.09-2.99-1.07-5.09-4.24-6.29c-13.65-5.16-25.49-13.49-37.37-21.74
			c-1.72-1.19-3.35-2.54-5.17-3.54c-2.07-1.15-4.25-1.32-6.38,0.17c-4.1,2.87-8.29,5.61-12.37,8.51
			c-5.29,3.76-10.52,7.61-15.76,11.45c-3.05,2.24-3.81,2.13-6.58-0.61c-13.74-13.57-27.51-27.11-41.25-40.67
			c-3.58-3.53-7.1-7.11-10.66-10.65c-1.36-1.35-1.45-2.67-0.37-4.33c5.59-8.55,11.09-17.15,16.64-25.72
			c0.35-0.53,0.77-1.04,1.24-1.47c4.23-3.89,4.74-7.24,1.52-11.83c-3.63-5.18-7.55-10.15-11.07-15.4
			c-4.13-6.17-7.97-12.53-11.91-18.82c-1.72-2.75-3.35-5.55-5.07-8.29c-1.03-1.65-2.56-2.71-4.51-2.12
			c-2.22,0.67-3.97-0.22-6.01-0.75c-2.77-0.73-5.93-2.36-8.74,0.36c-0.34,0.33-1.11,0.38-1.66,0.32
			C-462.99,496.61-471.5,495.65-480.64,494.64z"/>
		<path d="M-344.27,463.09c-5.63-4.04-11.26-8.07-16.88-12.11c-3.56-2.56-7.15-5.09-10.64-7.73c-3.61-2.73-7.11-5.6-10.68-8.36
			c-1.4-1.08-2.89-2.07-4.34-3.08c-0.79-0.56-1.84-0.92-2.37-1.66c-5.19-7.3-12.72-12.29-18.62-18.87
			c-3.45-3.85-6.99-7.62-10.26-11.61c-6.26-7.66-12.29-15.5-18.55-23.17c-7.74-9.48-14.12-19.85-20.2-30.4
			c-5.51-9.56-10.95-19.18-15.95-29.01c-4.77-9.39-9.05-19.03-13.33-28.66c-2.97-6.68-5.44-13.58-8.36-20.28
			c-2.94-6.76-2.69-13.56-1.08-20.53c0.87-3.77,1.12-7.69,2.2-11.39c1.66-5.63,3.77-11.25,8.4-15.14c1.83-1.54,4.68-2.51,7.1-2.59
			c11.04-0.36,22.09-0.35,33.14-0.38c4.91-0.01,5.71-0.57,6.78-5.42c0.17-0.77,0.49-1.54,0.9-2.2c4.25-6.88,8.37-13.86,12.86-20.58
			c3.67-5.51,7.8-10.71,11.71-16.06c2.65-3.62,2.82-5.49,0.25-9.23c-6.07-8.82-12.25-17.56-18.45-26.3
			c-2.95-4.16-3.04-4.42,0.7-8.13c6.24-6.18,12.59-12.24,18.81-18.44c6.9-6.88,13.65-13.91,20.56-20.79
			c4.24-4.22,8.65-8.26,13.12-12.52c7.51,4.72,14.78,9.29,22.04,13.87c3.7,2.34,7.37,4.73,11.07,7.07c2.26,1.43,4.26,0.73,6.31-0.66
			c5.5-3.75,10.93-7.65,16.66-11.03c9.22-5.44,18.54-10.75,28.08-15.61c4.12-2.1,5.54-4.55,5.41-9.13
			c-0.32-11.38-0.09-22.77-0.01-34.16c0.03-4.61,0.65-4.97,5.14-6.06c7.57-1.83,15.07-3.98,22.61-5.93
			c14.93-3.85,29.87-7.66,45.3-11.61c1.2,1.73,2.61,3.48,3.71,5.4c5.34,9.29,10.61,18.62,15.88,27.96c2.02,3.58,1.87,4.15-1.5,6.19
			c-12.29,7.46-23.1,16.8-33.57,26.56c-17.79,16.61-33.15,35.3-46.6,55.52c-10.71,16.11-20.07,33.05-27.81,50.78
			c-4.87,11.15-9.34,22.5-13.36,33.98c-3.16,9.02-5.31,18.4-8.04,27.58c-1.05,3.55-2.88,6.9-3.65,10.49
			c-3.35,15.55-6.74,31.11-9.51,46.77c-1.41,7.96-1.41,16.16-2.25,24.23c-0.66,6.29-1.74,12.54-2.45,18.82
			c-0.88,7.72-1.99,15.46-2.25,23.21c-0.47,13.65-0.63,27.32-0.42,40.98c0.15,9.89,1.03,19.77,1.72,29.64
			c0.59,8.41,1.4,16.81,2.05,25.21c0.1,1.23-0.16,2.5-0.25,3.75C-343.51,462.53-343.89,462.81-344.27,463.09z"/>
		<path d="M-303.39,273.43c3.23-4.93,5.83-9.18,8.72-13.22c1.96-2.74,4.06-5.47,6.53-7.73c6.08-5.58,10.14-12.66,14.75-19.31
			c7.27-10.46,17.2-16.11,29.8-16.8c6.97-0.38,13.98-0.06,20.97-0.04c36.77,0.11,73.53,0.09,110.3,0.43
			c11.68,0.11,23.46,0.46,35.01,2.02c12.17,1.64,24.13,4.73,35.43,10.06c8.72,4.11,17.23,8.5,24.22,15.2
			c4.19,4.01,8.22,8.35,11.51,13.11c7.04,10.2,9.75,21.93,9.76,34.17c0.01,7.45-0.51,14.96-1.48,22.35
			c-1.37,10.44-1.43,20.84,1.26,30.95c1.6,6.01,4.9,11.58,7.43,17.34c8.95,8.06,17.77,16.42,30.43,18.21
			c8.19,1.16,16.41,2.42,24.65,2.87c13.96,0.76,27.95,0.94,41.93,1.29c12.52,0.32,25.04,0.59,37.57,0.81c5.5,0.1,5.8-0.22,5.87-5.73
			c0.08-6.83,0.09-13.67,0.03-20.5c-0.02-2.06-0.38-4.12-0.63-6.55c-2.13-0.13-3.88-0.32-5.62-0.33c-28.8-0.15-57.59-0.3-86.39-0.41
			c-5.69-0.02-11.39,0.15-17.08,0.11c-1.88-0.02-3.76-0.44-6.35-0.77c1.17-1.44,1.81-2.29,2.51-3.09
			c11.16-13,22.47-25.86,33.41-39.04c4.08-4.91,8.54-6.92,15.05-6.87c41.82,0.27,83.63,0.11,125.45,0.1c2.89,0,5.79,0,8.5,0
			c1.12,4,1.39,132.21,0.38,138.97c-1.25,0.14-2.63,0.42-4.02,0.42c-50.6-0.05-101.2-0.12-151.8-0.21
			c-16.51-0.03-32.64-2.68-48.38-7.52c-10.27-3.16-20.22-7.42-29.19-13.23c-8.64-5.6-16.82-11.95-24.3-19.24
			c-6.07-5.92-11.06-12.51-15.66-19.51c-6.61-10.06-10.58-21.17-12.92-32.92c-2.2-11.09-3.07-22.31-1.28-33.45
			c1.27-7.88,0.91-15.47-0.7-23.14c-1.69-8.04-6.91-12.9-14.12-16.22c-5.97-2.75-12.35-2.9-18.61-2.93
			c-32.54-0.2-65.09-0.16-97.63-0.06c-19.31,0.06-38.62,0.33-57.93,0.58c-13.32,0.18-26.64,0.54-39.96,0.71
			C-298.19,274.32-300.42,273.79-303.39,273.43z"/>
		<path d="M-262.68,161.17c4.15-5.77,8.14-11.65,12.47-17.29c12.09-15.75,25.16-30.66,39.52-44.37
			c17.53-16.73,36.19-32.05,56.62-45.24c14.08-9.1,28.63-17.28,43.72-24.48c15.41-7.36,31.38-13.31,47.81-17.99
			c1.39-0.39,2.87-0.67,4.3-0.63c9.33,0.25,18.44,2.07,27.17,5.13c3.48,1.22,6.64,4.13,9.16,6.97c1.35,1.53,1.35,4.54,1.39,6.89
			c0.17,11.38,0.2,22.76,0.17,34.14c-0.01,3.16,1.25,4.92,4.22,6.29c14.49,6.7,28.01,15.12,41.07,24.28
			c4.3,3.02,5.72,3.28,10.06,0.26c7.45-5.2,14.76-10.6,22.12-15.92c2.49-1.8,4.95-3.65,7.6-5.61c3.79,1.65,6,5,8.71,7.67
			c9.84,9.7,19.52,19.56,29.28,29.33c5.39,5.4,10.97,10.61,16.15,16.21c2.08,2.26,4.25,3.31,7.17,3.4
			c11.05,0.36,22.11,0.68,33.16,1.15c17.87,0.75,35.73,1.64,53.6,2.39c13.17,0.55,26.33,1,39.5,1.46c19.35,0.68,38.69,1.32,58.04,2
			c15.77,0.55,31.54,1.11,47.3,1.72c25.19,0.98,50.37,2.04,75.56,3c19.98,0.77,39.97,1.46,59.95,2.16
			c17.55,0.61,35.11,1.08,52.66,1.81c18.68,0.78,37.36,1.86,56.04,2.66c13.81,0.58,27.63,0.86,41.44,1.37
			c24.05,0.89,48.11,1.82,72.16,2.8c28.28,1.15,56.55,2.46,84.83,3.51c18.21,0.68,36.43,0.88,54.63,1.55
			c19.66,0.72,39.3,1.79,58.96,2.59c17.88,0.73,35.76,1.29,53.64,1.95c0.94,0.03,1.88,0.21,2.81,0.95c-7.95,0-15.91,0-23.86,0
			c-72.59,0.01-145.17,0.02-217.76,0.01c-90.82-0.01-181.63-0.05-272.45-0.06c-114.58-0.01-229.16-0.07-343.73,0.13
			c-8.83,0.02-16.95-1.74-25.14-4.62c-11.48-4.04-23-8.08-34.77-11.14c-15.53-4.03-31.26-7.38-47.22-9.42
			c-19.52-2.49-39.07-4.61-58.78-4.51c-16.43,0.09-32.87-0.07-49.28,0.56c-19.99,0.77-39.87,3.07-59.62,6.19
			c-17.3,2.73-34.57,5.77-51.73,9.29c-12.23,2.51-24.25,6.02-36.36,9.1c-3.88,0.99-7.74,2.04-11.62,3.07
			C-262.23,161.65-262.45,161.41-262.68,161.17z"/>
		<path d="M-236.16,440.44c-1.79,0.17-3.36,0.45-4.92,0.45c-19.2,0.03-38.4,0.04-57.6,0.02c-4.75-0.01-5.24-0.5-5.25-5.39
			c-0.03-23.11,0-46.21-0.06-69.32c-0.03-9.43-0.27-18.86-0.34-28.29c-0.02-2.27,0.29-4.54,0.37-6.81c0.09-2.38,1.2-3.55,3.64-3.54
			c9.91,0.02,19.83-0.02,29.74-0.02c10.9,0.01,21.81-0.01,32.71,0.07c24.23,0.18,48.45,0.44,72.68,0.62
			c18.38,0.14,36.77,0.21,55.15,0.31c3.54,0.02,7.08,0.01,10.61,0.03c1.89,0.01,3.09,0.83,3.23,2.85c0.19,2.91,0.32,5.83,0.59,8.73
			c1.07,11.54,3.93,22.66,7.69,33.61c5.24,15.25,13.16,28.97,23.64,41.09c5.04,5.82,11.12,10.75,16.8,16
			c3.7,3.42,7.52,6.72,12.05,10.76c-3.23-0.18-5.56-0.44-7.89-0.41c-14.62,0.16-29.25,0.29-43.87,0.65
			c-5.17,0.13-10.33,1.25-15.48,1.19c-4.97-0.06-10.22-0.28-14.82-1.93c-3.74-1.34-6.81-4.76-9.96-7.5
			c-6.23-5.41-10.01-12.62-13.96-19.69c-2.45-4.39-5.06-8.7-7.57-13.05c-0.81-1.41-1.71-2.79-2.3-4.29
			c-3.08-7.8-9.09-12.27-16.74-14.84c-7.29-2.46-14.8-1.52-22.25-1.19c-3.89,0.17-7.76,0.66-11.65,0.77
			c-9.58,0.28-19.17,0.39-28.75,0.63c-4.19,0.1-4.76,0.77-4.77,5.46c-0.02,13.99,0.05,27.99-0.03,41.98
			C-235.47,432.92-235.89,436.46-236.16,440.44z"/>
		<path d="M1.86,217.08c75.91-0.39,150.72-0.77,226.31-1.16c-0.63,1.66-0.86,2.87-1.47,3.83c-9.66,15-19.37,29.96-29.08,44.93
			c-1.67,2.58-3.8,4.94-5.01,7.7c-1.34,3.04-3.5,3.33-6.24,3.33c-27.99,0.06-55.98,0.09-83.97,0.27
			c-26.52,0.17-53.03,0.49-79.55,0.76c-4.53,0.05-4.83,0.02-6.05-4.44C11.82,254.16,6.96,235.99,1.86,217.08z"/>
		<path d="M495.56,399.29c-6.85,0-13.48,0-20.48,0c-0.25-0.96-0.75-2-0.76-3.04c-0.05-25.85-0.05-51.7-0.06-77.55
			c0-0.97-0.02-1.96,0.13-2.92c0.46-2.96,1.4-3.98,4.46-4.05c6.83-0.17,13.66-0.11,20.48-0.17c13.16-0.12,26.33-0.55,39.48-0.27
			c6.72,0.14,13.69-0.07,19.93,3.38c11.9,6.57,16.49,18.49,12.18,31.47c-0.72,2.17-2.69,3.97-4.22,5.83
			c-1.94,2.37-2.25,4.7,0.19,6.32c4.23,2.81,4.62,7.21,5.66,11.41c0.23,0.93,0.13,1.94,0.13,2.92c0.01,8.75,0,17.49,0,26.57
			c-7.23,0-14.44,0-22.27,0c-0.06-5.09-0.12-10.07-0.16-15.05c-0.03-3.09,0.14-6.19-0.08-9.26c-0.31-4.38-2.26-6.42-6.54-7.21
			c-1.27-0.23-2.59-0.27-3.88-0.27c-12.68-0.02-25.37-0.02-38.05,0c-5.09,0.01-5.66,0.52-5.7,5.52c-0.06,7.64,0,15.28-0.03,22.92
			C495.96,396.92,495.71,398.02,495.56,399.29z M497.61,347.19c2.28,0.24,4.17,0.6,6.06,0.6c11.7,0.03,23.41-0.02,35.11-0.06
			c0.97,0,1.97-0.01,2.91-0.2c3.45-0.71,6.16-3.91,6.2-7.22c0.04-3.31-2.62-6.41-6.23-7.09c-1.26-0.24-2.59-0.22-3.88-0.22
			c-9.43-0.01-18.86-0.01-28.28,0c-2.76,0-5.53,0.01-8.29,0.07c-2.02,0.04-3.54,0.82-3.58,3.09
			C497.57,339.7,497.61,343.23,497.61,347.19z"/>
		<path d="M799.9,399.61c-3.25,0-6.53-0.28-9.75,0.06c-7.58,0.8-14.78-1.24-21.25-4.32c-10.01-4.77-17.6-12.33-21.74-23.19
			c-2.74-7.19-4.33-14.41-3.07-21.89c1.6-9.52,5.05-18.2,12.21-25.35c6.71-6.7,14.49-10.79,23.56-12.77
			c1.73-0.38,3.54-0.56,5.31-0.57c9.27-0.07,18.54-0.26,27.81-0.03c13.31,0.33,24.38,5.32,33.22,15.67
			c5.85,6.85,9.33,14.55,10.29,23.22c1.61,14.6-3.06,27.19-13.82,37.35c-8.57,8.09-18.97,11.56-30.56,11.82
			C808.03,399.69,803.96,399.61,799.9,399.61z M799.67,334.7c-0.01,0.24-0.03,0.48-0.04,0.71c-4.38,0-8.77-0.06-13.15,0.01
			c-9.66,0.15-16.31,8.16-18.25,15.06c-3.85,13.65,7.67,25.08,17.99,25.32c7.95,0.19,15.9,0.49,23.85,0.44
			c4.53-0.03,9.06-0.64,13-3.31c6.93-4.7,11.02-11.35,9.57-20.79c-1.13-7.36-7.14-14.38-14.62-15.77
			C812.01,335.26,805.79,335.22,799.67,334.7z"/>
		<path d="M1103.76,399.17c-8.58,0-16.61,0-24.76,0c-1.63-3.52-3.51-6.95-4.8-10.58c-1.09-3.08-3.04-3.71-5.96-3.69
			c-13.02,0.09-26.03,0.04-39.05,0.03c-2.6,0-5.21,0.03-7.81-0.07c-2.7-0.1-4.14,1.21-4.98,3.69c-1.19,3.51-2.61,6.95-4.02,10.65
			c-8.57,0-17.12,0-26.26,0c3.21-6.92,6.3-13.44,9.27-20.01c4.61-10.2,9.06-20.46,13.73-30.63c4.33-9.43,8.55-18.93,13.43-28.07
			c3.57-6.68,9.8-10.16,17.42-10.93c9.95-1,19.24,0.09,25.98,8.64c1.39,1.77,2.65,3.71,3.6,5.74c4.34,9.27,8.53,18.6,12.8,27.89
			c6.16,13.42,12.36,26.83,18.5,40.26C1101.86,394.26,1102.68,396.5,1103.76,399.17z M1060.54,364.27
			c-0.17-0.85-0.21-1.82-0.54-2.67c-2.26-5.74-4.49-11.49-6.92-17.16c-1.41-3.28-3.01-6.5-4.83-9.56c-1.91-3.22-4.39-3.06-6.3,0.17
			c-0.33,0.56-0.53,1.19-0.79,1.78c-3.25,7.26-6.57,14.5-9.71,21.81c-0.79,1.83-1.02,3.9-1.5,5.83
			C1035.3,366.07,1056.39,365.87,1060.54,364.27z"/>
		<path d="M351.09,398.76c-7.82,0-14.94,0-22.05,0c-1.8,0-2.43-1.28-3.03-2.7c-1.08-2.54-2.34-5.01-3.37-7.57
			c-1.04-2.58-2.73-3.73-5.59-3.72c-15.94,0.05-31.88,0-47.81-0.07c-2.65-0.01-4.29,1.2-5.2,3.57c-0.99,2.58-2.07,5.13-2.91,7.75
			c-0.63,1.95-1.58,2.95-3.8,2.91c-7.13-0.11-14.25-0.04-22.15-0.04c2.41-5.7,4.5-10.9,6.79-16.02
			c4.92-10.96,9.93-21.87,14.93-32.79c4.12-8.99,8.12-18.05,12.5-26.92c4.31-8.72,11.4-13.22,21.34-13.63
			c8.73-0.36,16.51,1.16,22.4,8.14c1.45,1.72,2.95,3.52,3.87,5.53c6.71,14.6,13.27,29.28,19.91,43.92
			c3.89,8.56,7.87,17.06,11.78,25.61C349.52,394.49,350.14,396.32,351.09,398.76z M293.35,366.3c0-0.01,0-0.02,0-0.03
			c4.06,0,8.11-0.01,12.17,0c4.43,0.02,5.17-1.06,3.41-5.26c-1.81-4.34-3.7-8.65-5.58-12.95c-1.94-4.46-3.76-8.98-5.97-13.3
			c-0.72-1.4-2.38-2.9-3.85-3.2c-2.12-0.44-3.48,1.5-4.28,3.33c-3.9,8.91-7.79,17.82-11.51,26.81c-1.48,3.56-0.58,4.59,3.44,4.6
			C285.24,366.31,289.3,366.3,293.35,366.3z"/>
		<path d="M430.81,352.61c7.33,0,14.06,0,21.09,0c0.21,1.55,0.53,2.79,0.52,4.02c-0.05,12.03-0.09,24.05-0.3,36.08
			c-0.04,2.18-0.84,4.35-1.34,6.78c-2.11,0-3.72,0-5.32,0c-13.34,0.01-26.67-0.04-40.01,0.03c-8.78,0.05-17.02-1.91-24.9-5.77
			c-5.84-2.86-10.41-7.12-14.3-12.17c-9.94-12.91-10.48-27.3-5.79-42.1c1.85-5.83,5.45-11.06,10.1-15.28
			c8.45-7.66,18.16-12.5,29.81-12.55c15.93-0.08,31.87-0.07,47.81-0.08c0.95,0,1.91,0.15,3.52,0.28c0,6.66,0,13.22,0,20.52
			c-1.3,0.15-3.13,0.54-4.96,0.56c-15.12,0.12-30.25,0.08-45.37,0.28c-16.12,0.21-23.9,13.89-21.86,26.19
			c1.67,10.04,7.98,16,18.15,18.74c1.25,0.34,2.57,0.52,3.86,0.54c7.97,0.12,15.93,0.27,23.9,0.19c4.04-0.04,4.72-0.89,4.82-4.99
			c0.14-5.52,0.16-11.05,0.26-16.58C430.54,355.87,430.69,354.44,430.81,352.61z"/>
		<path d="M728.79,311.66c0.9,6.81,0.67,13.84,0.11,21.4c-3.16,0-5.88,0-8.61,0c-12.86,0.02-25.71,0.14-38.57,0.02
			c-9.96-0.09-17.02,4.42-21.87,12.89c-3.29,5.74-1.78,17.58,2.79,23.08c5.11,6.14,11.47,9.29,19.51,9.25
			c13.83-0.08,27.66-0.02,41.5-0.01c1.6,0,3.2,0,5.42,0c0.55,7.16,0.04,14.01,0.24,21.32c-3.57,0-6.46,0-9.36,0
			c-13.18-0.01-26.37,0.08-39.55-0.08c-12.02-0.15-23.06-4.25-31.34-12.57c-11.87-11.94-16.67-29.25-10.33-46.36
			c4.53-12.23,12.87-20.57,24.45-25.73c5.31-2.37,11.15-3.42,17.11-3.34c10.39,0.13,20.78,0.11,31.18,0.13
			C716.96,311.67,722.46,311.66,728.79,311.66z"/>
		<path d="M969.63,378.68c0,6.81,0,13.4,0,20.58c-1.5,0.12-3.2,0.38-4.89,0.38c-20.65,0.02-41.3,0.01-61.95,0.01
			c-5.24,0-10.29-0.73-15.03-3.23c-5.74-3.02-9.01-7.86-10.24-14.04c-0.69-3.47-1.03-7.07-1.05-10.62
			c-0.07-19.02,0.02-38.04,0.07-57.06c0-0.78,0.16-1.55,0.31-2.84c2.54-0.11,4.91-0.26,7.28-0.31c3.41-0.07,6.83,0,10.24-0.1
			c3.66-0.11,4.23,0.22,4.37,3.94c0.15,4.22,0.03,8.45,0.04,12.68c0.03,13.01,0.03,26.01,0.11,39.02c0.01,2.1,0.22,4.23,0.61,6.29
			c0.59,3.1,2.49,4.82,5.69,4.95c4.21,0.18,8.42,0.07,12.64,0.1c10.56,0.08,21.12,0.18,31.68,0.24
			C955.99,378.71,962.48,378.68,969.63,378.68z"/>
		<path d="M593.56,311.79c7.29,0,13.92,0,21.02,0c0.23,1.8,0.63,3.51,0.63,5.23c-0.02,18.87-0.13,37.74-0.14,56.6
			c0,7.64,0.2,15.27,0.3,22.91c0.01,0.78-0.07,1.55-0.12,2.65c-7.27,0-14.33,0-21.68,0C593.56,370.09,593.56,341.23,593.56,311.79z"
			/>
		<path d="M269.79,564.39c0.46-1.68,0.64-2.58,0.96-3.43c1.58-4.23,3.42-8.39,4.69-12.71c0.49-1.67,0.22-3.94-0.54-5.55
			c-5.42-11.51-5.45-22.93,0.47-34.17c4.56-8.67,11.75-14.25,20.83-18.09c13.07-5.52,30.8,0.59,38.71,9.65
			c7.62,8.73,11.43,18.36,10.21,29.86c-1.15,10.75-6.4,19.51-14.97,25.64c-10.33,7.39-22.12,8.63-34.32,5.16
			c-1.21-0.34-2.2-1.67-3.38-1.82c-2.35-0.29-4.9-0.59-7.11,0.03C280.37,560.38,275.56,562.34,269.79,564.39z M279.38,554.98
			c2.69-0.61,4.31-0.74,5.72-1.35c3.55-1.54,6.63-1.1,10.15,0.67c8.47,4.26,17.16,4.13,25.84,0.1
			c12.13-5.64,18.57-15.28,18.78-28.41c0.2-12.66-5.51-22.44-16.93-28.61c-20.49-11.08-41.54,3.6-45.35,19.38
			c-1.99,8.24-1.28,16.21,2.5,23.73c1.59,3.16,2.32,5.91,0.55,9.16C279.99,550.85,279.96,552.39,279.38,554.98z"/>
		<path d="M681.4,507.98c3.23,0.3,6.51,0.35,9.68,0.95c3.43,0.66,6.21,2.56,7.87,5.82c1.37,2.69,1.28,5.32-0.33,7.86
			c-1.3,2.05-1.76,4.04-0.63,6.41c4.09,8.6-0.66,13.34-8.74,14.75c-5.66,0.99-11.66,0.49-17.47,0.05c-4.35-0.33-8-2.56-10.09-6.69
			c-0.96-1.89-2.09-3.9-0.13-5.76c1.39-1.33,6.11-1.07,7.26,0.64c4.52,6.71,11.06,4.76,17.22,4.23c1.76-0.15,3.6-1.06,3.59-3.32
			c-0.01-2.54-2-3.17-4.01-3.4c-2.09-0.23-4.22-0.15-6.33-0.26c-1.71-0.08-3.44-0.45-3.53-2.53c-0.1-2.24,1.48-3.01,3.51-3.16
			c2.59-0.19,5.21-0.27,7.73-0.81c0.99-0.21,2.38-1.52,2.43-2.39c0.05-0.93-1.06-2.47-2.01-2.82c-5.02-1.89-10.16-2.14-15.17,0.1
			c-0.95,0.42-1.55,1.57-2.41,2.25c-1.1,0.86-2.27,2.16-3.48,2.24c-1.79,0.12-4.14-0.15-5.29-1.25c-0.75-0.72-0.11-3.34,0.47-4.9
			c1.89-5.02,6.41-6.64,11.09-7.46c2.83-0.5,5.83-0.09,8.75-0.09C681.38,508.28,681.39,508.13,681.4,507.98z"/>
		<path d="M441.81,543.03c-2.66-0.2-6.31-0.07-9.76-0.83c-6.51-1.45-9.18-4.27-7.96-10.84c0.32-1.71,0.85-2.88,2.41-3.88
			c3.29-2.12,3.39-2.89,1.89-6.3c-2.34-5.33-1.42-7.68,4.03-9.72c6.46-2.42,13.19-1.89,19.7-0.7c4.39,0.8,8.42,4.14,5.05,10.55
			c-1.36,2.59-0.71,4.41,1.46,5.82c3.34,2.19,4.49,5.36,3.25,8.85c-1.25,3.49-4.11,5.75-7.98,6.32c-0.48,0.07-0.97,0.09-1.45,0.12
			C449.2,542.61,445.96,542.79,441.81,543.03z M443.11,537.22c2.3-0.3,4.73-0.45,7.08-0.96c1.81-0.4,3.29-1.51,3.23-3.66
			c-0.06-2.02-1.23-3.35-3.12-3.83c-4.94-1.25-9.92-1.07-14.87-0.03c-1.93,0.4-3.12,1.67-3.21,3.72c-0.09,2.14,1.23,3.35,3.11,3.73
			C437.83,536.69,440.41,536.88,443.11,537.22z M442.87,521.22c1.8-0.13,3.78-0.07,5.65-0.49c0.88-0.2,2.24-1.46,2.15-2.03
			c-0.17-1.05-1.2-2.71-1.99-2.78c-3.84-0.32-7.72-0.36-11.57-0.11c-0.83,0.05-2.22,1.74-2.16,2.6c0.06,0.88,1.45,2.09,2.48,2.38
			C439.1,521.26,440.96,521.11,442.87,521.22z"/>
		<path d="M634.55,538.03c-4.05,0-7.94,0-11.82,0c-2.27,0-4.55,0.06-6.82-0.05c-3.63-0.18-4.77-1.37-4.11-4.9
			c0.34-1.8,1.23-3.85,2.54-5.06c6.64-6.15,13.44-12.12,20.3-18.02c2.41-2.08,5.46-1.97,8.33-1.16c2.24,0.63,2.66,2.7,2.69,4.71
			c0.04,3.41-0.07,6.82-0.1,10.23c-0.03,3.32-0.19,6.59,4.43,7.32c0.8,0.13,1.56,2.2,1.84,3.48c0.35,1.58-0.47,3.02-2.16,3.26
			c-2.22,0.31-3.64,1.5-4.3,3.45c-1.07,3.17-3.69,2.6-6.04,2.82c-2.81,0.26-2.92-1.97-3.57-3.75
			C635.53,539.75,635.17,539.2,634.55,538.03z M634.94,520.37c-3.99,2.66-7.36,4.81-10.12,8.64c3.37,2,6.66,1.82,9.47,0.71
			c2.43-0.96,1.48-3.93,1.54-6.1C635.86,522.89,635.45,522.15,634.94,520.37z"/>
		<path d="M740.08,543.67c-3.77,1.05-6.43,0.69-7.92-3.06c-0.89-2.23-3.08-2.63-5.33-2.61c-4.38,0.04-8.77,0.05-13.15-0.01
			c-1.88-0.03-4.3,0.55-5.18-1.66c-0.99-2.47-0.86-5.19,1.15-7.29c1.78-1.86,3.77-3.53,5.67-5.27c3.79-3.48,7.55-7,11.39-10.42
			c3.16-2.81,6.35-5.54,11.09-5.12c3.2,0.28,4.06,0.84,4.05,4.05c0,3.4-0.25,6.8-0.37,10.21c-0.04,1.13-0.02,2.27-0.01,3.4
			c0.04,2.74,0.83,4.79,4.13,4.8c1.78,0,2.55,1.12,2.62,2.85c0.07,1.68,0.18,3.75-1.84,3.95
			C742.48,537.86,741.8,541.16,740.08,543.67z M731.19,520.82c-4.37,1.88-7.34,4.61-10.28,8.54c1.87,0.33,2.93,0.6,3.99,0.69
			C732.5,530.68,733.59,529.27,731.19,520.82z"/>
		<path d="M581,535.61c7.14,1.99,14.67-0.87,22.07,1.02c0,1.97,0,3.68,0,5.61c-12.07,0-24.13,0-36.31,0
			c-0.31-4.8,0.4-8.08,5.34-10.34c6.19-2.82,12.39-5.19,19.05-6.43c2.13-0.4,4.07-0.97,5.05-3.26c1.51-3.54,0.03-6.29-3.8-6.38
			c-4.54-0.11-9.1-0.11-13.62,0.22c-1.34,0.1-3.33,1.23-3.75,2.35c-1.4,3.81-3.99,3.65-7.02,2.97c-0.84-5.69,2.96-10.17,9.41-11.05
			c2.25-0.3,4.54-0.39,6.81-0.37c4.06,0.04,8.12,0.17,12.17,0.38c3.66,0.19,6.64,1.51,7.87,5.34c1.26,3.92,0.58,7.48-2.46,10.25
			c-1.63,1.49-3.63,2.8-5.7,3.52c-3.51,1.22-7.21,1.85-10.8,2.83c-1.58,0.43-3.09,1.12-4.63,1.69
			C580.8,534.5,580.9,535.06,581,535.61z"/>
		<path d="M521.77,536.59c3.81,0.68,7.27,1.54,10.77,1.84c3.05,0.26,6.19,0.18,9.22-0.27c5.52-0.82,7.47-3.87,6.16-9.72
			c-1.32,0.33-2.71,0.48-3.92,1.02c-6.8,3.01-13.54,2.95-19.97-0.74c-5.57-3.2-6.17-11.43-1.13-15.28c2.39-1.82,5.12-3.38,8.45-3.26
			c3.73,0.14,7.46-0.07,11.19,0.06c4.77,0.17,8.91,1.92,11.62,5.98c1.2,1.81,2.15,3.99,2.5,6.12c0.77,4.67,0.37,9.21-2.24,13.49
			c-2.92,4.79-7,7.04-12.47,6.93c-5.36-0.11-10.71-0.23-16.06-0.5C521.71,542.05,521.68,541.9,521.77,536.59z M537.43,527.03
			c2.71-0.43,5.16-0.6,7.48-1.24c1.94-0.54,3.49-1.92,3.5-4.17c0-2.38-1.4-4.04-3.58-4.68c-4.77-1.41-9.57-1.64-14.29,0.34
			c-1.76,0.74-3.06,1.82-3.12,3.91c-0.07,2.28,1.21,3.78,3.16,4.41C532.86,526.33,535.28,526.6,537.43,527.03z"/>
		<path d="M328.45,289.88c-2,0-3.37,0-5.31,0c0.08-7.7-0.69-15.12,0.69-22.52c0.55-2.93,2.7-4.45,5.4-4.95
			c2.47-0.46,4.55,0.75,5.7,2.9c2.21,4.15,4.2,8.41,6.25,12.64c0.98,2.03,1.71,4.24,4.96,5c1.58-3.26,3.19-6.57,4.78-9.88
			c1.12-2.34,2.1-4.76,3.38-7.01c1.65-2.89,4.35-3.95,7.45-3.23c2.67,0.61,4.62,2.8,4.7,6.06c0.16,6.8,0.05,13.6,0.05,20.29
			c-4.71,1.3-5.57,0.67-5.43-3.6c0.13-3.73,0.26-7.45,0.37-11.18c0.02-0.81,0.17-1.74-0.16-2.4c-0.45-0.9-1.22-2.11-2-2.24
			c-0.75-0.12-2.09,0.78-2.49,1.57c-2.04,4.05-3.85,8.21-5.75,12.32c-0.68,1.47-1.25,3.02-2.12,4.37c-2.02,3.13-6.06,3.22-7.88-0.03
			c-2.53-4.52-4.56-9.32-6.98-13.9c-0.97-1.83-1.08-5.28-4.1-4.51c-2.59,0.66-1.37,3.64-1.43,5.6
			C328.35,280.03,328.45,284.86,328.45,289.88z"/>
		<path d="M406.07,510.73c0.08,4.88,0.34,9.56,0.2,14.23c-0.19,6.35,0,6.74,6.66,7.79c0.08,0.66,0.29,1.42,0.24,2.16
			c-0.04,0.6-0.4,1.18-0.6,1.72c-5.35,0.01-5.74,0.33-6.8,5.64c-1.7,0-3.45,0-5.17,0c-1.46-5.1-3.07-5.93-8.25-5.64
			c-5.46,0.31-10.95,0.07-16.61,0.07c-1.03-3-0.81-5.53,1.86-7.79c5.81-4.92,11.52-9.95,17.19-15.02
			C399.07,510.03,399.02,509.97,406.07,510.73z M387.03,530.09c2.13,0.16,3.55,0.35,4.97,0.36c5.81,0.06,6.46-0.62,6.3-6.33
			c-0.01-0.32,0.03-0.65-0.02-0.97c-0.32-2.41-1.72-3.12-3.68-1.6c-2.42,1.88-4.64,4-6.87,6.11
			C387.36,528.01,387.39,528.78,387.03,530.09z"/>
		<path d="M524.44,292.84c-4.14,0.66-6.89,0.25-9.41-2.22c-1.07-1.05-3.18-1.28-4.86-1.43c-3.05-0.29-6.16-0.02-9.19-0.39
			c-6.4-0.77-9.98-6.73-10.36-12.34c-0.41-6.06,3.59-11.56,9.68-12.81c6-1.23,12.22-2.09,18.04,0.84c7.02,3.53,9.83,12.4,5.18,18.53
			C520.66,286.81,520.4,289.36,524.44,292.84z M508.28,282.72c1.8-0.24,4.08-0.33,6.23-0.9c2.68-0.7,4.09-2.94,4.14-5.83
			c0.05-2.83-0.97-4.47-3.75-5.54c-4.22-1.61-8.58-1.3-12.86-0.37c-2.84,0.62-4.74,3.35-4.74,6c0,2.53,2.05,5.35,4.78,6.02
			C503.92,282.56,505.89,282.5,508.28,282.72z"/>
		<path d="M508.68,537.55c0.11,1.49,0.22,2.9,0.35,4.66c-12.38,0-24.48,0-36.57,0c-0.67-6.23,0.02-7.89,5.48-10.32
			c3.96-1.76,8.2-2.9,12.33-4.26c2.91-0.96,5.91-1.7,8.77-2.77c1.94-0.72,3.37-3.6,3.08-5.61c-0.32-2.26-1.82-3.16-3.94-3.68
			c-5.22-1.29-10.34-0.7-15.4,0.63c-0.94,0.25-1.81,1.31-2.41,2.2c-2.44,3.62-2.4,3.65-7.15,2.53c-0.18-3.49,1.23-6.18,4.2-8.03
			c2.8-1.73,5.77-2.94,9.18-2.82c3.9,0.13,7.83-0.13,11.69,0.31c2.5,0.28,5.12,1.13,7.29,2.41c4.66,2.74,5.13,9.09,0.72,12.14
			c-2.99,2.06-6.63,3.26-10.1,4.51c-2.42,0.87-5.06,1.14-7.58,1.77c-1.24,0.31-2.64,0.59-3.58,1.35c-0.86,0.69-1.84,2.2-1.62,3.03
			c0.25,0.92,1.73,1.7,2.83,2.11c0.82,0.31,1.9-0.14,2.87-0.14C495.45,537.55,501.77,537.55,508.68,537.55z"/>
		<path d="M869.04,279.52c-0.34,3.61-0.65,6.91-0.96,10.15c-4.82,0.51-5.24,0.2-5.27-3.85c-0.05-6.01-0.11-12.03-0.12-18.04
			c-0.01-4.39,0.55-4.97,5.1-5c5.53-0.04,11.06,0,16.58,0.08c7.19,0.1,9.95,3.73,8.46,10.66c-0.39,1.81-0.08,3.8,0.06,5.69
			c0.19,2.73,0.6,5.45,0.76,8.18c0.1,1.71-0.78,2.74-2.61,2.81c-1.85,0.07-2.65-0.95-2.83-2.63c-0.07-0.64-0.03-1.3-0.06-1.95
			c-0.3-5.27-0.89-5.94-5.99-6.07C877.97,279.44,873.77,279.52,869.04,279.52z M877.76,273.65c0-0.02,0-0.03,0-0.05
			c1.93,0,3.89,0.2,5.78-0.09c0.89-0.14,1.63-1.22,2.44-1.88c-0.79-0.85-1.52-2.36-2.37-2.43c-3.83-0.28-7.7-0.28-11.54-0.08
			c-0.77,0.04-1.47,1.4-2.2,2.16c0.86,0.79,1.61,2.05,2.6,2.27C874.16,273.92,875.99,273.65,877.76,273.65z"/>
		<path d="M991.75,290c4.11-8.68,7.61-16.81,11.77-24.59c2.73-5.1,9.68-4.92,12.79,0.07c2.04,3.28,3.63,6.87,5.24,10.39
			c2,4.36,3.82,8.81,5.82,13.46c-2.79,1.22-5.04,1.51-6.54-1.18c-1.3-2.33-3.21-2.91-5.68-2.85c-3.56,0.09-7.14,0.06-10.7-0.04
			c-1.9-0.05-3.65,0.22-4.64,1.99C998.17,290.2,995.6,290.35,991.75,290z M1014.88,279.71c-1.34-4.32-1.86-7.93-5.34-10.65
			c-2.36,3.46-3.76,6.69-4.58,10.65C1008.27,279.71,1011.16,279.71,1014.88,279.71z"/>
		<path d="M816.4,289.78c-2.78,0.83-5.15,0.74-6.68-2.13c-1.08-2.01-2.89-2.35-4.96-2.33c-3.73,0.04-7.47,0-11.2-0.07
			c-2.09-0.04-3.75,0.49-4.92,2.44c-1.6,2.65-4.03,2.7-7.14,1.87c3.43-7.62,6.69-14.97,10.03-22.28c1.55-3.38,4.17-5.35,8.02-5.3
			c3.72,0.05,5.91,2.24,7.34,5.43c3.12,6.94,6.27,13.87,9.38,20.82C816.46,288.64,816.36,289.17,816.4,289.78z M798.98,269
			c-2.51,3.49-4.41,6.47-3.92,10.57c3.16,0.73,6.09,1.43,9.32-0.82C802.67,275.69,802.42,272.04,798.98,269z"/>
		<path d="M730.08,282.43c2.37-6.07-0.07-12.69,1.49-19.06c0.83-0.18,1.58-0.44,2.35-0.48c0.77-0.04,1.55,0.12,2.77,0.24
			c0,7.92,0.01,15.67,0,23.42c0,1.98-1.39,2.87-2.97,3.41c-2.34,0.81-4.52,0.35-6.24-1.5c-1.97-2.11-3.87-4.3-5.77-6.48
			c-3.08-3.54-6.07-7.18-9.27-10.61c-0.74-0.79-2.39-1.52-3.22-1.21c-0.87,0.33-1.71,1.91-1.77,2.99c-0.22,3.72-0.1,7.46-0.11,11.19
			c0,0.97,0,1.95-0.02,2.92c-0.03,1.68-0.65,2.86-2.57,2.77c-1.9-0.08-2.39-1.36-2.43-2.99c-0.01-0.32-0.01-0.65-0.01-0.97
			c0-5.68-0.01-11.36,0-17.04c0.01-2.74,0.57-5.18,3.54-6.28c3.03-1.12,5.47,0.04,7.38,2.22c3.95,4.51,7.71,9.19,11.58,13.76
			c1.21,1.43,2.55,2.75,3.83,4.13C729.12,282.73,729.6,282.58,730.08,282.43z"/>
		<path d="M447.89,289.58c-3.32,1.12-5.44,0.66-6.73-2.04c-0.9-1.89-2.51-2.33-4.43-2.31c-3.25,0.04-6.49,0.06-9.74-0.01
			c-3.15-0.07-6.01-0.13-7.81,3.39c-1.08,2.12-3.54,1.82-6.11,1.16c0.42-1.12,0.74-2.12,1.15-3.07c2.58-5.95,5.26-11.85,7.75-17.83
			c1.24-2.98,3.08-5.46,6.06-6.56c4.09-1.5,7.78,0.33,9.9,4.77c2.65,5.56,5.05,11.24,7.54,16.88
			C446.25,285.7,446.98,287.45,447.89,289.58z M436.34,280.55c-0.67-4.44-2.24-7.72-4.06-10.83c-0.93-1.59-2.86-1.3-3.86,0.57
			c-1.21,2.26-2.17,4.66-3.03,7.08c-0.55,1.57-0.05,3.04,1.86,3.14C430.06,280.66,432.9,280.55,436.34,280.55z"/>
		<path d="M571.14,262.98c2.31,0,3.58,0,5.31,0c0.17,1.83,0.45,3.56,0.48,5.29c0.08,4.07-0.07,8.14,0.11,12.2
			c0.15,3.41,1.52,4.58,4.95,4.64c3.24,0.05,6.47,0.01,9.71-0.03c4.37-0.05,5.47-1.05,5.6-5.48c0.1-3.25-0.09-6.5-0.05-9.76
			c0.03-2.1,0.23-4.19,0.37-6.51c0.95-0.19,1.7-0.43,2.45-0.45c0.78-0.02,1.57,0.16,2.59,0.28c0.22,1.18,0.58,2.26,0.59,3.34
			c0.06,5.04,0.09,10.09,0.01,15.13c-0.08,4.98-1.62,7.25-6.34,7.65c-6.29,0.53-12.66,0.66-18.96,0.32
			c-4.81-0.26-6.76-2.9-6.82-7.81C571.09,275.66,571.14,269.51,571.14,262.98z"/>
		<path d="M650.04,290.15c0-9.38,0-18.02,0-26.82c1.09-0.2,1.85-0.43,2.61-0.44c0.77-0.01,1.54,0.21,2.66,0.38
			c0,8.78,0,17.42,0,26.5C653.63,289.89,652.11,290,650.04,290.15z"/>
		<path d="M945.9,290c-2.36,0-3.78,0-5.7,0c-0.75-8.96-0.45-17.73-0.12-26.83c1.91,0,3.44,0,5.42,0
			C946.59,272.01,945.64,280.78,945.9,290z"/>
		<path d="M318.44,545.13c-2.03-0.54-4.12-0.91-6.07-1.65c-9.22-3.5-15.99-9.92-20.69-18.4c-1.52-2.73-2.34-6.14-2.43-9.27
			c-0.07-2.37,1.06-5.12,2.47-7.13c2.5-3.56,6.11-3.13,7.96,0.76c1.71,3.59,4.08,7.22,0.55,11.25c-1.39,1.58-0.63,3.61,0.69,4.88
			c3.02,2.91,6.21,5.65,9.45,8.32c1.66,1.37,3.38,0.88,4.76-0.63c1.37-1.49,2.9-3.08,4.99-2.29c2.53,0.96,5.04,2.26,7.18,3.9
			c1.51,1.17,0.81,4.73-0.94,6.68C324.28,543.88,321.6,544.9,318.44,545.13z"/>
	</g>
</g>
</svg>
