<?xml version="1.0" encoding="utf-8"?>
<!-- Generator: Adobe Illustrator 18.1.1, SVG Export Plug-In . SVG Version: 6.00 Build 0)  -->
<svg version="1.1" id="Layer_1" xmlns="http://www.w3.org/2000/svg" xmlns:xlink="http://www.w3.org/1999/xlink" x="0px" y="0px"
	 viewBox="4.1 239.3 603.9 262.3" enable-background="new 4.1 239.3 603.9 262.3" xml:space="preserve">
<g>
	<g>
		<path d="M10.9,423.7c-2-2-1.6-4.9-2.2-7.6c-1-4.5-2-9.1-3.1-13.6c-0.4-1.6-0.9-3.2-1.3-4.8c-0.5-1.8-0.1-2.3,1.5-3.2
			c2.8-1.5,5.5-3.1,8.3-4.7c1.3-0.7,2.5-1.5,4-2.3c0.9,1.1,1.7,2.1,2.5,3.2c1.3,1.8,2.6,3.5,3.9,5.3c2.2,3,4.8,5.6,7.6,7.9
			c2.5,1.9,4.6,4.2,6.9,6.3c1.9,1.7,3.8,3.4,5.7,5.1c0.5,0.5,1.2,0.8,1.8,1.2c2.2,1.5,4.2,3.1,6.4,4.5c3.6,2.2,7.3,4.3,10.9,6.4
			c1.3,0.8,2.7,1.3,4.2,1.6c1.4,0.3,2.7,1.1,4.1,1.7c3.3,1.4,6.6,2.8,10,4.1c2.6,1,5.2,1.9,7.8,2.6c4.5,1.2,9.1,2.3,13.7,3.4
			c6.1,1.4,12.4,2.3,18.6,3.1c5.3,0.8,10.7,1.2,16.1,1.4c7.1,0.3,14.2,0.4,21.3,0.2c5.5-0.1,11-0.8,16.7-1.2c-0.2,0.6-0.3,1-0.5,1.3
			c-1.7,2.4-3.4,4.8-5.1,7.2c-3.1,4.1-6.6,7.9-10.1,11.6c-5.2,5.5-10.8,10.5-16.8,15c-3.1,2.3-6.1,4.6-9.3,6.7
			c-2.6,1.7-5.5,3.2-8.3,4.7c-3.1,1.6-6.3,3.3-9.5,4.8c-2.7,1.3-5.5,2.3-8.3,3.4c-2.4,0.9-4.9,1.9-7.4,2.5c-1.5,0.4-3.2,0.1-4.7,0
			c-1.5-0.2-3-0.6-4.5-0.8c-2-0.3-3.7-1.2-5.3-2.3c-1.2-0.8-1.6-1.9-1.6-3.3c0-2.5,0.1-4.9,0.1-7.4c0-1.9-0.1-3.8-0.2-5.7
			c0-1.1-0.4-1.9-1.6-2.4c-5.1-1.9-9.6-5.1-14.1-8.2c-0.7-0.5-1.3-1-1.9-1.3c-0.8-0.4-1.6-0.5-2.4,0.1c-1.5,1.1-3.1,2.1-4.7,3.2
			c-2,1.4-4,2.9-5.9,4.3c-1.2,0.8-1.4,0.8-2.5-0.2c-5.2-5.1-10.4-10.2-15.5-15.3c-1.3-1.3-2.7-2.7-4-4c-0.5-0.5-0.5-1-0.1-1.6
			c2.1-3.2,4.2-6.5,6.3-9.7c0.1-0.2,0.3-0.4,0.5-0.5c1.6-1.5,1.8-2.7,0.6-4.5c-1.4-2-2.8-3.8-4.2-5.8c-1.6-2.3-3-4.7-4.5-7.1
			c-0.6-1-1.3-2.1-1.9-3.1c-0.4-0.6-1-1-1.7-0.8c-0.8,0.3-1.5-0.1-2.3-0.3c-1-0.3-2.2-0.9-3.3,0.1c-0.1,0.1-0.4,0.1-0.6,0.1
			C17.5,424.4,14.3,424.1,10.9,423.7z"/>
		<path d="M62.3,411.8c-2.1-1.5-4.2-3-6.4-4.6c-1.3-1-2.7-1.9-4-2.9c-1.4-1-2.7-2.1-4-3.1c-0.5-0.4-1.1-0.8-1.6-1.2
			c-0.3-0.2-0.7-0.4-0.9-0.6c-2-2.8-4.8-4.6-7-7.1c-1.3-1.5-2.6-2.9-3.9-4.4c-2.4-2.9-4.6-5.8-7-8.7c-2.9-3.6-5.3-7.5-7.6-11.5
			c-2.1-3.6-4.1-7.2-6-10.9c-1.8-3.5-3.4-7.2-5-10.8c-1.1-2.5-2.1-5.1-3.2-7.6c-1.1-2.5-1-5.1-0.4-7.7c0.3-1.4,0.4-2.9,0.8-4.3
			c0.6-2.1,1.4-4.2,3.2-5.7c0.7-0.6,1.8-1,2.7-1c4.2-0.1,8.3-0.1,12.5-0.1c1.9,0,2.1-0.2,2.6-2c0.1-0.3,0.2-0.6,0.3-0.8
			c1.6-2.6,3.1-5.2,4.9-7.8c1.4-2.1,2.9-4,4.4-6c1-1.4,1.1-2.1,0.1-3.5c-2.3-3.3-4.6-6.6-7-9.9c-1.1-1.6-1.1-1.7,0.3-3.1
			c2.4-2.3,4.7-4.6,7.1-7c2.6-2.6,5.1-5.2,7.8-7.8c1.6-1.6,3.3-3.1,4.9-4.7c2.8,1.8,5.6,3.5,8.3,5.2c1.4,0.9,2.8,1.8,4.2,2.7
			c0.8,0.5,1.6,0.3,2.4-0.3c2.1-1.4,4.1-2.9,6.3-4.2c3.5-2,7-4,10.6-5.9c1.6-0.8,2.1-1.7,2-3.4c-0.1-4.3,0-8.6,0-12.9
			c0-1.7,0.2-1.9,1.9-2.3c2.8-0.7,5.7-1.5,8.5-2.2c5.6-1.4,11.3-2.9,17.1-4.4c0.4,0.6,1,1.3,1.4,2c2,3.5,4,7,6,10.5
			c0.8,1.4,0.7,1.6-0.6,2.3c-4.6,2.8-8.7,6.3-12.7,10c-6.7,6.3-12.5,13.3-17.6,20.9c-4,6.1-7.6,12.5-10.5,19.1
			c-1.8,4.2-3.5,8.5-5,12.8c-1.2,3.4-2,6.9-3,10.4c-0.4,1.3-1.1,2.6-1.4,4c-1.3,5.9-2.5,11.7-3.6,17.6c-0.5,3-0.5,6.1-0.8,9.1
			c-0.3,2.4-0.7,4.7-0.9,7.1c-0.3,2.9-0.8,5.8-0.8,8.8c-0.2,5.1-0.2,10.3-0.2,15.4c0.1,3.7,0.4,7.5,0.7,11.2
			c0.2,3.2,0.5,6.3,0.8,9.5c0,0.5-0.1,0.9-0.1,1.4C62.5,411.6,62.4,411.7,62.3,411.8z"/>
		<path d="M77.7,340.3c1.2-1.9,2.2-3.5,3.3-5c0.7-1,1.5-2.1,2.5-2.9c2.3-2.1,3.8-4.8,5.6-7.3c2.7-3.9,6.5-6.1,11.2-6.3
			c2.6-0.1,5.3,0,7.9,0c13.9,0,27.7,0,41.6,0.2c4.4,0,8.8,0.2,13.2,0.8c4.6,0.6,9.1,1.8,13.4,3.8c3.3,1.5,6.5,3.2,9.1,5.7
			c1.6,1.5,3.1,3.1,4.3,4.9c2.6,3.8,3.7,8.3,3.7,12.9c0,2.8-0.2,5.6-0.6,8.4c-0.5,3.9-0.5,7.9,0.5,11.7c0.6,2.3,1.9,4.4,2.8,6.5
			c3.4,3,6.7,6.2,11.5,6.9c3.1,0.4,6.2,0.9,9.3,1.1c5.3,0.3,10.5,0.4,15.8,0.5c4.7,0.1,9.4,0.2,14.2,0.3c2.1,0,2.2-0.1,2.2-2.2
			c0-2.6,0-5.1,0-7.7c0-0.8-0.1-1.5-0.2-2.5c-0.8,0-1.5-0.1-2.1-0.1c-10.9-0.1-21.7-0.1-32.6-0.1c-2.1,0-4.3,0.1-6.4,0
			c-0.7,0-1.4-0.2-2.4-0.3c0.4-0.5,0.7-0.9,0.9-1.2c4.2-4.9,8.5-9.8,12.6-14.7c1.5-1.9,3.2-2.6,5.7-2.6c15.8,0.1,31.5,0,47.3,0
			c1.1,0,2.2,0,3.2,0c0.4,1.5,0.5,49.8,0.1,52.4c-0.5,0-1,0.2-1.5,0.2c-19.1,0-38.1,0-57.2-0.1c-6.2,0-12.3-1-18.2-2.8
			c-3.9-1.2-7.6-2.8-11-5c-3.3-2.1-6.3-4.5-9.2-7.3c-2.3-2.2-4.2-4.7-5.9-7.4c-2.5-3.8-4-8-4.9-12.4c-0.8-4.2-1.2-8.4-0.5-12.6
			c0.5-3,0.3-5.8-0.3-8.7c-0.6-3-2.6-4.9-5.3-6.1c-2.3-1-4.6-1.1-7-1.1c-12.3-0.1-24.5-0.1-36.8,0c-7.3,0-14.6,0.1-21.8,0.2
			c-5,0.1-10,0.2-15.1,0.3C79.6,340.7,78.8,340.5,77.7,340.3z"/>
		<path d="M93,298c1.6-2.2,3.1-4.4,4.7-6.5c4.6-5.9,9.5-11.5,14.9-16.7c6.6-6.3,13.6-12.1,21.3-17c5.3-3.4,10.8-6.5,16.5-9.2
			c5.8-2.8,11.8-5,18-6.8c0.5-0.1,1.1-0.3,1.6-0.2c3.5,0.1,6.9,0.8,10.2,1.9c1.3,0.5,2.5,1.6,3.4,2.6c0.5,0.6,0.5,1.7,0.5,2.6
			c0.1,4.3,0.1,8.6,0.1,12.9c0,1.2,0.5,1.9,1.6,2.4c5.5,2.5,10.6,5.7,15.5,9.1c1.6,1.1,2.2,1.2,3.8,0.1c2.8-2,5.6-4,8.3-6
			c0.9-0.7,1.9-1.4,2.9-2.1c1.4,0.6,2.3,1.9,3.3,2.9c3.7,3.7,7.4,7.4,11,11c2,2,4.1,4,6.1,6.1c0.8,0.9,1.6,1.3,2.7,1.3
			c4.2,0.1,8.3,0.3,12.5,0.4c6.7,0.3,13.5,0.6,20.2,0.9c5,0.2,9.9,0.4,14.9,0.5c7.3,0.3,14.6,0.5,21.9,0.8
			c5.9,0.2,11.9,0.4,17.8,0.6c9.5,0.4,19,0.8,28.5,1.1c7.5,0.3,15.1,0.5,22.6,0.8c6.6,0.2,13.2,0.4,19.8,0.7c7,0.3,14.1,0.7,21.1,1
			c5.2,0.2,10.4,0.3,15.6,0.5c9.1,0.3,18.1,0.7,27.2,1.1c10.7,0.4,21.3,0.9,32,1.3c6.9,0.3,13.7,0.3,20.6,0.6
			c7.4,0.3,14.8,0.7,22.2,1c6.7,0.3,13.5,0.5,20.2,0.7c0.3,0,0.7,0.1,1.1,0.4c-3,0-6,0-9,0c-27.4,0-54.7,0-82.1,0
			c-34.2,0-68.5,0-102.7,0c-43.2,0-86.4,0-129.5,0c-3.3,0-6.4-0.7-9.5-1.7c-4.3-1.5-8.7-3-13.1-4.2c-5.9-1.5-11.8-2.8-17.8-3.5
			c-7.4-0.9-14.7-1.7-22.1-1.7c-6.2,0-12.4,0-18.6,0.2c-7.5,0.3-15,1.2-22.5,2.3c-6.5,1-13,2.2-19.5,3.5c-4.6,1-9.1,2.3-13.7,3.4
			c-1.5,0.4-2.9,0.8-4.4,1.2C93.2,298.2,93.1,298.1,93,298z"/>
		<path d="M103,403.3c-0.7,0.1-1.3,0.2-1.8,0.2c-7.2,0-14.5,0-21.7,0c-1.8,0-2-0.2-2-2c0-8.7,0-17.4,0-26.1c0-3.5-0.1-7.1-0.1-10.7
			c0-0.9,0.1-1.7,0.1-2.6c0-0.9,0.4-1.3,1.4-1.3c3.7,0,7.5,0,11.2,0c4.1,0,8.2,0,12.3,0c9.1,0.1,18.3,0.2,27.4,0.2
			c6.9,0,13.9,0.1,20.8,0.1c1.3,0,2.7,0,4,0c0.7,0,1.2,0.3,1.2,1.1c0.1,1.1,0.1,2.2,0.2,3.3c0.4,4.4,1.5,8.5,2.9,12.7
			c2,5.8,5,10.9,8.9,15.5c1.9,2.2,4.2,4,6.3,6c1.4,1.3,2.8,2.5,4.5,4c-1.2-0.1-2.1-0.2-3-0.1c-5.5,0.1-11,0.1-16.5,0.2
			c-1.9,0-3.9,0.5-5.8,0.5c-1.9,0-3.9-0.1-5.6-0.7c-1.4-0.5-2.6-1.8-3.8-2.8c-2.4-2-3.8-4.8-5.3-7.4c-0.9-1.6-1.9-3.3-2.9-4.9
			c-0.3-0.5-0.6-1-0.9-1.6c-1.2-2.9-3.4-4.6-6.3-5.6c-2.8-0.9-5.6-0.6-8.4-0.5c-1.5,0.1-2.9,0.3-4.4,0.3c-3.6,0.1-7.2,0.1-10.8,0.2
			c-1.6,0-1.8,0.3-1.8,2.1c0,5.3,0,10.5,0,15.8C103.3,400.4,103.1,401.8,103,403.3z"/>
		<path d="M192.7,319.1c28.6-0.1,56.8-0.3,85.3-0.4c-0.2,0.6-0.3,1.1-0.5,1.4c-3.6,5.6-7.3,11.3-11,16.9c-0.6,1-1.4,1.9-1.9,2.9
			c-0.5,1.1-1.3,1.3-2.4,1.3c-10.6,0-21.1,0-31.6,0.1c-10,0.1-20,0.2-30,0.3c-1.7,0-1.8,0-2.3-1.7
			C196.4,333.1,194.6,326.2,192.7,319.1z"/>
		<path d="M378.8,387.8c-2.6,0-5.1,0-7.7,0c-0.1-0.4-0.3-0.8-0.3-1.1c0-9.7,0-19.5,0-29.2c0-0.4,0-0.7,0-1.1
			c0.2-1.1,0.5-1.5,1.7-1.5c2.6-0.1,5.1,0,7.7-0.1c5,0,9.9-0.2,14.9-0.1c2.5,0,5.2,0,7.5,1.3c4.5,2.5,6.2,7,4.6,11.9
			c-0.3,0.8-1,1.5-1.6,2.2c-0.7,0.9-0.9,1.8,0.1,2.4c1.6,1.1,1.7,2.7,2.1,4.3c0.1,0.4,0,0.7,0,1.1c0,3.3,0,6.6,0,10
			c-2.7,0-5.4,0-8.4,0c0-1.9,0-3.8-0.1-5.7c0-1.2,0-2.3,0-3.5c-0.1-1.6-0.9-2.4-2.5-2.7c-0.5-0.1-1-0.1-1.5-0.1c-4.8,0-9.6,0-14.3,0
			c-1.9,0-2.1,0.2-2.1,2.1c0,2.9,0,5.8,0,8.6C378.9,386.9,378.8,387.3,378.8,387.8z M379.5,368.1c0.9,0.1,1.6,0.2,2.3,0.2
			c4.4,0,8.8,0,13.2,0c0.4,0,0.7,0,1.1-0.1c1.3-0.3,2.3-1.5,2.3-2.7s-1-2.4-2.4-2.7c-0.5-0.1-1-0.1-1.5-0.1c-3.5,0-7.1,0-10.7,0
			c-1,0-2.1,0-3.1,0c-0.8,0-1.3,0.3-1.4,1.2C379.5,365.3,379.5,366.6,379.5,368.1z"/>
		<path d="M493.4,387.9c-1.2,0-2.5-0.1-3.7,0c-2.9,0.3-5.6-0.5-8-1.6c-3.8-1.8-6.6-4.6-8.2-8.7c-1-2.7-1.6-5.4-1.2-8.3
			c0.6-3.6,1.9-6.9,4.6-9.5c2.5-2.5,5.5-4.1,8.9-4.8c0.6-0.1,1.3-0.2,2-0.2c3.5,0,7-0.1,10.5,0c5,0.1,9.2,2,12.5,5.9
			c2.2,2.6,3.5,5.5,3.9,8.8c0.6,5.5-1.2,10.3-5.2,14.1c-3.2,3-7.1,4.4-11.5,4.5C496.5,387.9,495,387.9,493.4,387.9z M493.4,363.4
			c0,0.1,0,0.2,0,0.3c-1.6,0-3.3,0-5,0c-3.6,0.1-6.1,3.1-6.9,5.7c-1.5,5.1,2.9,9.5,6.8,9.5c3,0.1,6,0.2,9,0.2c1.7,0,3.4-0.2,4.9-1.3
			c2.6-1.8,4.1-4.3,3.6-7.8c-0.4-2.8-2.7-5.4-5.5-5.9C498,363.6,495.7,363.6,493.4,363.4z"/>
		<path d="M607.9,387.7c-3.2,0-6.3,0-9.3,0c-0.6-1.3-1.3-2.6-1.8-4c-0.4-1.2-1.2-1.4-2.3-1.4c-4.9,0-9.8,0-14.7,0c-1,0-2,0-2.9,0
			c-1,0-1.6,0.5-1.9,1.4c-0.5,1.3-1,2.6-1.5,4c-3.2,0-6.5,0-9.9,0c1.2-2.6,2.4-5.1,3.5-7.5c1.7-3.8,3.4-7.7,5.2-11.5
			c1.6-3.5,3.2-7.1,5.1-10.6c1.3-2.5,3.7-3.8,6.6-4.1c3.8-0.4,7.3,0,9.8,3.3c0.5,0.7,1,1.4,1.4,2.2c1.6,3.5,3.2,7,4.8,10.5
			c2.3,5.1,4.7,10.1,7,15.2C607.2,385.9,607.5,386.7,607.9,387.7z M591.7,374.6c-0.1-0.3-0.1-0.7-0.2-1c-0.8-2.2-1.7-4.3-2.6-6.5
			c-0.5-1.2-1.1-2.5-1.8-3.6c-0.7-1.2-1.7-1.1-2.4,0.1c-0.1,0.2-0.2,0.5-0.3,0.7c-1.2,2.7-2.5,5.5-3.7,8.2c-0.3,0.7-0.4,1.5-0.6,2.2
			C582.2,375.3,590.1,375.2,591.7,374.6z"/>
		<path d="M324.3,387.6c-3,0-5.6,0-8.3,0c-0.7,0-0.9-0.5-1.1-1c-0.4-1-0.9-1.9-1.3-2.9c-0.4-1-1-1.4-2.1-1.4c-6,0-12,0-18,0
			c-1,0-1.6,0.5-2,1.4c-0.4,1-0.8,1.9-1.1,2.9c-0.2,0.7-0.6,1.1-1.4,1.1c-2.7,0-5.4,0-8.4,0c0.9-2.1,1.7-4.1,2.6-6
			c1.9-4.1,3.7-8.2,5.6-12.4c1.5-3.4,3.1-6.8,4.7-10.1c1.6-3.3,4.3-5,8-5.1c3.3-0.1,6.2,0.4,8.4,3.1c0.5,0.6,1.1,1.3,1.5,2.1
			c2.5,5.5,5,11,7.5,16.5c1.5,3.2,3,6.4,4.4,9.6C323.7,386,324,386.6,324.3,387.6z M302.5,375.3L302.5,375.3c1.5,0,3.1,0,4.6,0
			c1.7,0,2-0.4,1.3-2c-0.7-1.6-1.4-3.3-2.1-4.9c-0.7-1.7-1.4-3.4-2.3-5c-0.3-0.5-0.9-1.1-1.5-1.2c-0.8-0.2-1.3,0.6-1.6,1.3
			c-1.5,3.4-2.9,6.7-4.3,10.1c-0.6,1.3-0.2,1.7,1.3,1.7C299.5,375.3,301,375.3,302.5,375.3z"/>
		<path d="M354.4,370.2c2.8,0,5.3,0,8,0c0.1,0.6,0.2,1,0.2,1.5c0,4.5,0,9.1-0.1,13.6c0,0.8-0.3,1.6-0.5,2.6c-0.8,0-1.4,0-2,0
			c-5,0-10,0-15.1,0c-3.3,0-6.4-0.7-9.4-2.2c-2.2-1.1-3.9-2.7-5.4-4.6c-3.8-4.9-4-10.3-2.2-15.9c0.7-2.2,2-4.2,3.8-5.8
			c3.2-2.9,6.8-4.7,11.2-4.7c6,0,12,0,18,0c0.4,0,0.7,0.1,1.3,0.1c0,2.5,0,5,0,7.7c-0.5,0.1-1.2,0.2-1.9,0.2c-5.7,0-11.4,0-17.1,0.1
			c-6.1,0.1-9,5.2-8.2,9.9c0.6,3.8,3,6,6.8,7.1c0.5,0.1,1,0.2,1.5,0.2c3,0,6,0.1,9,0.1c1.5,0,1.8-0.3,1.8-1.9c0-2.1,0.1-4.2,0.1-6.3
			C354.2,371.4,354.3,370.9,354.4,370.2z"/>
		<path d="M466.6,354.8c0.3,2.6,0.3,5.2,0,8.1c-1.2,0-2.2,0-3.2,0c-4.9,0-9.7,0-14.5,0c-3.8,0-6.4,1.7-8.2,4.9
			c-1.2,2.2-0.7,6.6,1,8.7c1.9,2.3,4.3,3.5,7.4,3.5c5.2,0,10.4,0,15.6,0c0.6,0,1.2,0,2,0c0.2,2.7,0,5.3,0.1,8c-1.4,0-2.4,0-3.5,0
			c-5,0-9.9,0-14.9,0c-4.5-0.1-8.7-1.6-11.8-4.7c-4.5-4.5-6.3-11-3.9-17.5c1.7-4.6,4.9-7.8,9.2-9.7c2-0.9,4.2-1.3,6.5-1.3
			c3.9,0,7.8,0,11.8,0C462.2,354.8,464.3,354.8,466.6,354.8z"/>
		<path d="M557.4,380c0,2.6,0,5,0,7.8c-0.6,0-1.2,0.1-1.8,0.1c-7.8,0-15.6,0-23.3,0c-2,0-3.9-0.3-5.7-1.2c-2.2-1.1-3.4-3-3.9-5.3
			c-0.3-1.3-0.4-2.7-0.4-4c0-7.2,0-14.3,0-21.5c0-0.3,0.1-0.6,0.1-1.1c1,0,1.8-0.1,2.7-0.1c1.3,0,2.6,0,3.9,0c1.4,0,1.6,0.1,1.7,1.5
			c0.1,1.6,0,3.2,0,4.8c0,4.9,0,9.8,0,14.7c0,0.8,0.1,1.6,0.2,2.4c0.2,1.2,0.9,1.8,2.1,1.9c1.6,0.1,3.2,0,4.8,0c4,0,8,0.1,11.9,0.1
			C552.3,380,554.7,380,557.4,380z"/>
		<path d="M415.7,354.8c2.8,0,5.3,0,7.9,0c0.1,0.7,0.2,1.3,0.2,2c0,7.1,0,14.2,0,21.3c0,2.9,0.1,5.8,0.1,8.6c0,0.3,0,0.6,0,1
			c-2.7,0-5.4,0-8.2,0C415.7,376.8,415.7,365.9,415.7,354.8z"/>
		<path d="M315.8,346.5c-0.8,0-1.3,0-2,0c0-2.9-0.3-5.7,0.3-8.5c0.2-1.1,1-1.7,2-1.9c0.9-0.2,1.7,0.3,2.1,1.1
			c0.8,1.6,1.6,3.2,2.4,4.8c0.4,0.8,0.6,1.6,1.9,1.9c0.6-1.2,1.2-2.5,1.8-3.7c0.4-0.9,0.8-1.8,1.3-2.6c0.6-1.1,1.6-1.5,2.8-1.2
			c1,0.2,1.7,1.1,1.8,2.3c0.1,2.6,0,5.1,0,7.6c-1.8,0.5-2.1,0.3-2-1.4c0-1.4,0.1-2.8,0.1-4.2c0-0.3,0.1-0.7-0.1-0.9
			c-0.2-0.3-0.5-0.8-0.8-0.8c-0.3,0-0.8,0.3-0.9,0.6c-0.8,1.5-1.5,3.1-2.2,4.6c-0.3,0.5-0.5,1.1-0.8,1.6c-0.8,1.2-2.3,1.2-3,0
			c-1-1.7-1.7-3.5-2.6-5.2c-0.4-0.7-0.4-2-1.5-1.7c-1,0.3-0.5,1.4-0.5,2.1C315.7,342.8,315.8,344.6,315.8,346.5z"/>
		<path d="M389.6,347.6c-1.6,0.3-2.6,0.1-3.5-0.8c-0.4-0.4-1.2-0.5-1.8-0.5c-1.1-0.1-2.3,0-3.5-0.1c-2.4-0.3-3.8-2.5-3.9-4.6
			c-0.1-2.3,1.4-4.4,3.6-4.8c2.3-0.5,4.6-0.8,6.8,0.3c2.6,1.3,3.7,4.7,2,7C388.2,345.4,388.1,346.3,389.6,347.6z M383.5,343.8
			c0.7-0.1,1.5-0.1,2.4-0.3c1-0.3,1.5-1.1,1.6-2.2c0-1.1-0.4-1.7-1.4-2.1c-1.6-0.6-3.2-0.5-4.9-0.1c-1.1,0.2-1.8,1.3-1.8,2.3
			c0,1,0.8,2,1.8,2.3C381.9,343.8,382.6,343.8,383.5,343.8z"/>
		<path d="M519.5,342.6c-0.1,1.4-0.2,2.6-0.4,3.8c-1.8,0.2-2,0.1-2-1.5c0-2.3,0-4.5,0-6.8c0-1.6,0.2-1.9,1.9-1.9c2.1,0,4.2,0,6.3,0
			c2.7,0,3.8,1.4,3.2,4c-0.2,0.7,0,1.4,0,2.1c0.1,1,0.2,2,0.3,3.1c0,0.6-0.3,1-1,1.1c-0.7,0-1-0.4-1.1-1c0-0.2,0-0.5,0-0.7
			c-0.1-2-0.3-2.2-2.3-2.3C522.9,342.6,521.3,342.6,519.5,342.6z M522.8,340.4C522.8,340.4,522.8,340.4,522.8,340.4
			c0.7,0,1.5,0.1,2.2,0c0.3,0,0.6-0.5,0.9-0.7c-0.3-0.3-0.6-0.9-0.9-0.9c-1.4-0.1-2.9-0.1-4.3,0c-0.3,0-0.5,0.5-0.8,0.8
			c0.3,0.3,0.6,0.8,1,0.9C521.4,340.5,522.1,340.4,522.8,340.4z"/>
		<path d="M565.7,346.6c1.5-3.3,2.9-6.3,4.4-9.3c1-1.9,3.7-1.9,4.8,0c0.8,1.2,1.4,2.6,2,3.9c0.8,1.6,1.4,3.3,2.2,5.1
			c-1,0.5-1.9,0.6-2.5-0.4c-0.5-0.9-1.2-1.1-2.1-1.1c-1.3,0-2.7,0-4,0c-0.7,0-1.4,0.1-1.8,0.8C568.2,346.7,567.2,346.7,565.7,346.6z
			 M574.5,342.7c-0.5-1.6-0.7-3-2-4c-0.9,1.3-1.4,2.5-1.7,4C572,342.7,573,342.7,574.5,342.7z"/>
		<path d="M499.6,346.5c-1,0.3-1.9,0.3-2.5-0.8c-0.4-0.8-1.1-0.9-1.9-0.9c-1.4,0-2.8,0-4.2,0c-0.8,0-1.4,0.2-1.9,0.9
			c-0.6,1-1.5,1-2.7,0.7c1.3-2.9,2.5-5.6,3.8-8.4c0.6-1.3,1.6-2,3-2c1.4,0,2.2,0.8,2.8,2c1.2,2.6,2.4,5.2,3.5,7.9
			C499.7,346.1,499.6,346.3,499.6,346.5z M493.1,338.7c-1,1.3-1.7,2.4-1.5,4c1.2,0.3,2.3,0.5,3.5-0.3
			C494.5,341.2,494.4,339.8,493.1,338.7z"/>
		<path d="M467.1,343.7c0.9-2.3,0-4.8,0.6-7.2c0.3-0.1,0.6-0.2,0.9-0.2c0.3,0,0.6,0,1,0.1c0,3,0,5.9,0,8.8c0,0.8-0.5,1.1-1.1,1.3
			c-0.9,0.3-1.7,0.1-2.4-0.6c-0.7-0.8-1.5-1.6-2.2-2.4c-1.2-1.3-2.3-2.7-3.5-4c-0.3-0.3-0.9-0.6-1.2-0.5c-0.3,0.1-0.6,0.7-0.7,1.1
			c-0.1,1.4,0,2.8,0,4.2c0,0.4,0,0.7,0,1.1c0,0.6-0.2,1.1-1,1c-0.7,0-0.9-0.5-0.9-1.1c0-0.1,0-0.2,0-0.4c0-2.1,0-4.3,0-6.4
			c0-1,0.2-2,1.3-2.4c1.1-0.4,2.1,0,2.8,0.8c1.5,1.7,2.9,3.5,4.4,5.2c0.5,0.5,1,1,1.4,1.6C466.8,343.8,466.9,343.8,467.1,343.7z"/>
		<path d="M360.8,346.4c-1.3,0.4-2,0.3-2.5-0.8c-0.3-0.7-1-0.9-1.7-0.9c-1.2,0-2.5,0-3.7,0c-1.2,0-2.3,0-2.9,1.3
			c-0.4,0.8-1.3,0.7-2.3,0.4c0.2-0.4,0.3-0.8,0.4-1.2c1-2.2,2-4.5,2.9-6.7c0.5-1.1,1.2-2.1,2.3-2.5c1.5-0.6,2.9,0.1,3.7,1.8
			c1,2.1,1.9,4.2,2.8,6.4C360.2,345,360.4,345.6,360.8,346.4z M356.4,343c-0.3-1.7-0.8-2.9-1.5-4.1c-0.4-0.6-1.1-0.5-1.5,0.2
			c-0.5,0.9-0.8,1.8-1.1,2.7c-0.2,0.6,0,1.1,0.7,1.2C354.1,343.1,355.1,343,356.4,343z"/>
		<path d="M407.2,336.4c0.9,0,1.4,0,2,0c0.1,0.7,0.2,1.3,0.2,2c0,1.5,0,3.1,0,4.6c0.1,1.3,0.6,1.7,1.9,1.8c1.2,0,2.4,0,3.7,0
			c1.6,0,2.1-0.4,2.1-2.1c0-1.2,0-2.5,0-3.7c0-0.8,0.1-1.6,0.1-2.5c0.4-0.1,0.6-0.2,0.9-0.2c0.3,0,0.6,0.1,1,0.1
			c0.1,0.4,0.2,0.9,0.2,1.3c0,1.9,0,3.8,0,5.7c0,1.9-0.6,2.7-2.4,2.9c-2.4,0.2-4.8,0.3-7.1,0.1c-1.8-0.1-2.5-1.1-2.6-2.9
			C407.2,341.2,407.2,338.9,407.2,336.4z"/>
		<path d="M437,346.6c0-3.5,0-6.8,0-10.1c0.4-0.1,0.7-0.2,1-0.2c0.3,0,0.6,0.1,1,0.1c0,3.3,0,6.6,0,10
			C438.3,346.5,437.7,346.6,437,346.6z"/>
		<path d="M548.5,346.6c-0.9,0-1.4,0-2.2,0c-0.3-3.4-0.2-6.7,0-10.1c0.7,0,1.3,0,2,0C548.7,339.8,548.4,343.1,548.5,346.6z"/>
	</g>
</g>
</svg>
